<?xml version="1.0" encoding="utf-8"?>
<!-- Generator: Adobe Illustrator 24.1.1, SVG Export Plug-In . SVG Version: 6.00 Build 0)  -->
<svg version="1.1" id="Capa_1" xmlns="http://www.w3.org/2000/svg" xmlns:xlink="http://www.w3.org/1999/xlink" x="0px" y="0px"
	 viewBox="0 0 1920 480" style="enable-background:new 0 0 1920 480;" xml:space="preserve">
<style type="text/css">
	.st0{fill:url(#SVGID_1_);}
	.st1{opacity:0.46;}
	.st2{fill:#FDB433;}
	.st3{opacity:0.49;fill:#FF8219;}
</style>
<g>
	
		<linearGradient id="SVGID_1_" gradientUnits="userSpaceOnUse" x1="-4191.0425" y1="531.7452" x2="-2317.3865" y2="-41.0889" gradientTransform="matrix(-1 0 0 1 -2301.9575 0)">
		<stop  offset="5.434346e-07" style="stop-color:#FFA200"/>
		<stop  offset="1" style="stop-color:#FF7101"/>
	</linearGradient>
	<path class="st0" d="M1920,430.63c0,0-199.81,49.37-442.87,49.37c-437.11,0-590.3-79.12-892.6-79.12S0,463.23,0,463.23L0,9.38
		c702.49-30.38,1920,22.79,1920,22.79V430.63z"/>
	<g class="st1">
		<g>
			<path class="st2" d="M0,463.23l0-47c169.99-25.19,317.77-19.24,436.86-10.77C196.32,419.86,0,463.23,0,463.23z"/>
			<path class="st2" d="M1477.13,480c-319.16,0-486.96-42.18-671.95-64.95c63.09-1.08,145.84-2.15,286.93-2.15
				c288,0,671.02,46.32,671.02,46.32v0C1685.75,470.14,1585.76,480,1477.13,480z"/>
		</g>
	</g>
	<path class="st3" d="M1477.13,480c-201.59,0-342.79-16.83-466.08-34.96c475.53,32.61,609.06-67.74,908.95-67.74v53.33
		C1920,430.63,1720.19,480,1477.13,480z"/>
</g>
</svg>
