<?xml version="1.0" encoding="utf-8"?>
<!-- Generator: Adobe Illustrator 24.1.1, SVG Export Plug-In . SVG Version: 6.00 Build 0)  -->
<svg version="1.1" id="Capa_1" xmlns="http://www.w3.org/2000/svg" xmlns:xlink="http://www.w3.org/1999/xlink" x="0px" y="0px"
	 viewBox="0 0 120 40" style="enable-background:new 0 0 120 40;" xml:space="preserve">
<style type="text/css">
	.st0{fill:#B5B5B5;}
	.st1{fill:#010100;}
	.st2{fill:#FFFFFF;}
</style>
<g>
	<g>
		<path class="st0" d="M113,40H7c-3.87,0-7-3.13-7-7V7c0-3.87,3.13-7,7-7h106c3.87,0,7,3.13,7,7v26C120,36.87,116.87,40,113,40z"/>
		<path class="st1" d="M7,39c-3.31,0-6-2.69-6-6V7c0-3.31,2.69-6,6-6h106c3.31,0,6,2.69,6,6v26c0,3.31-2.69,6-6,6H7z"/>
	</g>
	<g>
		<g id="XMLID_3_">
			<g id="XMLID_4_">
				<g id="XMLID_5_">
					<path id="XMLID_7_" class="st2" d="M25.04,19.55c-0.03-2.75,2.25-4.09,2.36-4.15c-1.29-1.88-3.29-2.14-3.99-2.16
						c-1.68-0.18-3.31,1-4.16,1c-0.87,0-2.19-0.99-3.61-0.96c-1.83,0.03-3.54,1.09-4.47,2.73c-1.93,3.35-0.49,8.27,1.36,10.98
						c0.93,1.33,2.01,2.81,3.43,2.75c1.39-0.06,1.91-0.88,3.58-0.88c1.66,0,2.14,0.88,3.59,0.85c1.49-0.02,2.43-1.33,3.32-2.67
						c1.07-1.52,1.5-3.02,1.52-3.09C27.92,23.93,25.07,22.84,25.04,19.55z"/>
					<path id="XMLID_6_" class="st2" d="M22.31,11.46c0.75-0.93,1.26-2.2,1.11-3.49c-1.08,0.05-2.43,0.75-3.21,1.66
						c-0.69,0.8-1.3,2.12-1.14,3.36C20.28,13.08,21.53,12.37,22.31,11.46z"/>
				</g>
			</g>
			<g>
				<path class="st2" d="M42.57,26.38h-4.73l-1.14,3.36h-2l4.48-12.42h2.08l4.48,12.42h-2.04L42.57,26.38z M38.33,24.84h3.75
					l-1.85-5.45h-0.05L38.33,24.84z"/>
				<path class="st2" d="M55.43,25.21c0,2.81-1.51,4.62-3.78,4.62c-1.29,0-2.31-0.58-2.85-1.58h-0.04v4.48H46.9V20.69h1.8v1.51h0.03
					c0.52-0.97,1.62-1.6,2.88-1.6C53.92,20.59,55.43,22.41,55.43,25.21z M53.52,25.21c0-1.83-0.95-3.04-2.39-3.04
					c-1.42,0-2.38,1.23-2.38,3.04c0,1.82,0.96,3.05,2.38,3.05C52.57,28.26,53.52,27.06,53.52,25.21z"/>
				<path class="st2" d="M65.39,25.21c0,2.81-1.51,4.62-3.78,4.62c-1.29,0-2.31-0.58-2.85-1.58h-0.04v4.48h-1.86V20.69h1.8v1.51
					h0.03c0.52-0.97,1.62-1.6,2.88-1.6C63.88,20.59,65.39,22.41,65.39,25.21z M63.48,25.21c0-1.83-0.95-3.04-2.39-3.04
					c-1.42,0-2.38,1.23-2.38,3.04c0,1.82,0.96,3.05,2.38,3.05C62.54,28.26,63.48,27.06,63.48,25.21z"/>
				<path class="st2" d="M71.98,26.28c0.14,1.23,1.33,2.04,2.97,2.04c1.57,0,2.69-0.81,2.69-1.92c0-0.96-0.68-1.54-2.29-1.94
					l-1.61-0.39c-2.28-0.55-3.34-1.62-3.34-3.35c0-2.14,1.87-3.61,4.52-3.61c2.62,0,4.42,1.47,4.48,3.61h-1.88
					c-0.11-1.24-1.14-1.99-2.63-1.99s-2.52,0.76-2.52,1.86c0,0.88,0.65,1.39,2.25,1.79L76,22.73c2.55,0.6,3.61,1.63,3.61,3.44
					c0,2.32-1.85,3.78-4.79,3.78c-2.75,0-4.61-1.42-4.73-3.67H71.98z"/>
				<path class="st2" d="M83.62,18.54v2.14h1.72v1.47h-1.72v4.99c0,0.78,0.34,1.14,1.1,1.14c0.19,0,0.49-0.03,0.61-0.04v1.46
					c-0.21,0.05-0.62,0.09-1.03,0.09c-1.83,0-2.55-0.69-2.55-2.44v-5.19h-1.32v-1.47h1.32v-2.14H83.62z"/>
				<path class="st2" d="M86.34,25.21c0-2.85,1.68-4.64,4.29-4.64c2.63,0,4.29,1.79,4.29,4.64c0,2.86-1.66,4.64-4.29,4.64
					C88,29.85,86.34,28.07,86.34,25.21z M93.03,25.21c0-1.95-0.9-3.11-2.4-3.11s-2.4,1.16-2.4,3.11c0,1.96,0.89,3.11,2.4,3.11
					S93.03,27.18,93.03,25.21z"/>
				<path class="st2" d="M96.46,20.69h1.77v1.54h0.04c0.28-1.02,1.11-1.64,2.18-1.64c0.27,0,0.49,0.04,0.64,0.07v1.74
					c-0.15-0.06-0.47-0.11-0.83-0.11c-1.2,0-1.94,0.81-1.94,2.08v5.37h-1.86V20.69z"/>
				<path class="st2" d="M109.65,27.08c-0.25,1.64-1.85,2.77-3.9,2.77c-2.63,0-4.27-1.76-4.27-4.6c0-2.84,1.64-4.68,4.19-4.68
					c2.5,0,4.08,1.72,4.08,4.47v0.64h-6.39v0.11c0,1.55,0.97,2.56,2.44,2.56c1.03,0,1.84-0.49,2.09-1.27H109.65z M103.37,24.38h4.53
					c-0.04-1.39-0.93-2.3-2.22-2.3C104.4,22.08,103.47,23.01,103.37,24.38z"/>
			</g>
		</g>
		<g id="XMLID_2_">
			<g>
				<path class="st2" d="M35.7,10.96c0-1.94,1.03-3.13,2.69-3.13c1.31,0,2.33,0.85,2.48,2.07h-0.92c-0.17-0.73-0.77-1.2-1.56-1.2
					c-1.07,0-1.74,0.87-1.74,2.27c0,1.39,0.67,2.26,1.75,2.26c0.79,0,1.39-0.43,1.55-1.1h0.92c-0.17,1.18-1.15,1.96-2.48,1.96
					C36.73,14.09,35.7,12.89,35.7,10.96z"/>
				<path class="st2" d="M41.88,11.69c0-1.45,0.81-2.34,2.13-2.34c1.31,0,2.12,0.88,2.12,2.34c0,1.46-0.81,2.34-2.12,2.34
					C42.69,14.03,41.88,13.15,41.88,11.69z M45.21,11.69c0-0.98-0.44-1.55-1.21-1.55c-0.77,0-1.21,0.57-1.21,1.55
					c0,0.98,0.43,1.55,1.21,1.55C44.78,13.24,45.21,12.67,45.21,11.69z"/>
				<path class="st2" d="M47.32,9.44h0.86v0.72h0.07c0.22-0.5,0.67-0.8,1.34-0.8c1,0,1.56,0.6,1.56,1.67v2.92h-0.89v-2.69
					c0-0.72-0.31-1.08-0.97-1.08s-1.08,0.44-1.08,1.14v2.63h-0.89V9.44z"/>
				<path class="st2" d="M54.16,9.35c1.01,0,1.67,0.47,1.76,1.27h-0.85c-0.08-0.33-0.41-0.54-0.91-0.54c-0.5,0-0.87,0.24-0.87,0.59
					c0,0.27,0.23,0.44,0.72,0.55l0.75,0.17c0.86,0.2,1.26,0.57,1.26,1.23c0,0.85-0.79,1.41-1.87,1.41c-1.07,0-1.77-0.48-1.85-1.28
					h0.89c0.11,0.35,0.44,0.56,0.98,0.56c0.55,0,0.95-0.25,0.95-0.61c0-0.27-0.21-0.44-0.66-0.55l-0.79-0.18
					c-0.86-0.2-1.25-0.59-1.25-1.26C52.42,9.91,53.15,9.35,54.16,9.35z"/>
				<path class="st2" d="M57.14,8.69l1.04-1.42h1.04l-1.16,1.42H57.14z M57.23,9.44h0.88v4.5h-0.88V9.44z"/>
				<path class="st2" d="M59.5,14.39h0.91c0.08,0.33,0.45,0.54,1.05,0.54c0.74,0,1.18-0.35,1.18-0.95v-0.86h-0.07
					c-0.27,0.49-0.77,0.76-1.39,0.76c-1.15,0-1.86-0.89-1.86-2.24c0-1.37,0.72-2.27,1.87-2.27c0.62,0,1.16,0.31,1.41,0.79h0.07V9.44
					h0.85v4.54c0,1.03-0.81,1.68-2.08,1.68C60.32,15.66,59.59,15.16,59.5,14.39z M62.65,11.63c0-0.9-0.46-1.47-1.22-1.47
					c-0.76,0-1.19,0.57-1.19,1.47c0,0.9,0.43,1.47,1.19,1.47C62.19,13.11,62.65,12.54,62.65,11.63z"/>
				<path class="st2" d="M68.74,13.94h-0.86v-0.72h-0.07c-0.22,0.51-0.68,0.8-1.36,0.8c-1,0-1.55-0.61-1.55-1.67V9.44h0.89v2.69
					c0,0.73,0.29,1.08,0.95,1.08c0.72,0,1.11-0.43,1.11-1.13V9.44h0.89V13.94z"/>
				<path class="st2" d="M73.96,12.73c-0.2,0.81-0.92,1.3-1.95,1.3c-1.29,0-2.08-0.88-2.08-2.32c0-1.44,0.81-2.35,2.08-2.35
					c1.25,0,2.01,0.86,2.01,2.27v0.31h-3.18v0.05c0.03,0.79,0.49,1.29,1.2,1.29c0.54,0,0.91-0.19,1.07-0.55H73.96z M70.83,11.28
					h2.27c-0.02-0.71-0.45-1.17-1.11-1.17C71.34,10.11,70.88,10.57,70.83,11.28z"/>
				<path class="st2" d="M75.25,7.68h0.89v6.26h-0.89V7.68z"/>
				<path class="st2" d="M77.37,11.69c0-1.45,0.81-2.34,2.13-2.34c1.31,0,2.12,0.88,2.12,2.34c0,1.46-0.81,2.34-2.12,2.34
					C78.18,14.03,77.37,13.15,77.37,11.69z M80.7,11.69c0-0.98-0.44-1.55-1.21-1.55c-0.77,0-1.21,0.57-1.21,1.55
					c0,0.98,0.43,1.55,1.21,1.55C80.27,13.24,80.7,12.67,80.7,11.69z"/>
				<path class="st2" d="M89.06,12.73c-0.2,0.81-0.92,1.3-1.95,1.3c-1.29,0-2.08-0.88-2.08-2.32c0-1.44,0.81-2.35,2.08-2.35
					c1.25,0,2.01,0.86,2.01,2.27v0.31h-3.18v0.05c0.03,0.79,0.49,1.29,1.2,1.29c0.54,0,0.91-0.19,1.07-0.55H89.06z M85.94,11.28
					h2.27c-0.02-0.71-0.45-1.17-1.11-1.17C86.44,10.11,85.99,10.57,85.94,11.28z"/>
				<path class="st2" d="M90.31,9.44h0.86v0.72h0.07c0.22-0.5,0.67-0.8,1.34-0.8c1,0,1.56,0.6,1.56,1.67v2.92h-0.89v-2.69
					c0-0.72-0.31-1.08-0.97-1.08s-1.08,0.44-1.08,1.14v2.63h-0.89V9.44z"/>
				<path class="st2" d="M101.76,12.73c-0.2,0.81-0.92,1.3-1.95,1.3c-1.29,0-2.08-0.88-2.08-2.32c0-1.44,0.81-2.35,2.08-2.35
					c1.25,0,2.01,0.86,2.01,2.27v0.31h-3.18v0.05c0.03,0.79,0.49,1.29,1.2,1.29c0.54,0,0.91-0.19,1.07-0.55H101.76z M98.63,11.28
					h2.27c-0.02-0.71-0.45-1.17-1.11-1.17C99.14,10.11,98.68,10.57,98.63,11.28z"/>
				<path class="st2" d="M103.05,7.68h0.89v6.26h-0.89V7.68z"/>
			</g>
		</g>
	</g>
</g>
</svg>
