<?xml version="1.0" encoding="utf-8"?>
<!-- Generator: Adobe Illustrator 24.1.1, SVG Export Plug-In . SVG Version: 6.00 Build 0)  -->
<svg version="1.1" id="Capa_1" xmlns="http://www.w3.org/2000/svg" xmlns:xlink="http://www.w3.org/1999/xlink" x="0px" y="0px"
	 viewBox="0 0 134 40" style="enable-background:new 0 0 134 40;" xml:space="preserve">
<style type="text/css">
	.st0{fill:#B5B5B5;}
	.st1{fill:#010100;}
	.st2{fill:#FFFFFF;}
	.st3{fill:url(#SVGID_1_);}
	.st4{fill:url(#SVGID_2_);}
	.st5{fill:url(#SVGID_3_);}
	.st6{fill:url(#SVGID_4_);}
	.st7{opacity:0.2;fill:#010100;enable-background:new    ;}
	.st8{opacity:0.12;fill:#010100;enable-background:new    ;}
	.st9{opacity:0.25;fill:#FFFFFF;enable-background:new    ;}
	.st10{fill:#FFFFFF;stroke:#FFFFFF;stroke-width:0.2;stroke-miterlimit:10;}
</style>
<g>
	<g>
		<path class="st0" d="M129,40H5c-2.76,0-5-2.24-5-5V5c0-2.76,2.24-5,5-5h124c2.76,0,5,2.24,5,5v30C134,37.76,131.76,40,129,40z"/>
		<path class="st1" d="M5,39c-2.21,0-4-1.79-4-4V5c0-2.21,1.79-4,4-4h124c2.21,0,4,1.79,4,4v30c0,2.21-1.79,4-4,4H5z"/>
	</g>
	<g>
		<path class="st2" d="M67.24,21.28c-2.35,0-4.27,1.79-4.27,4.25c0,2.45,1.92,4.25,4.27,4.25c2.35,0,4.27-1.8,4.27-4.25
			C71.51,23.07,69.59,21.28,67.24,21.28z M67.24,28.11c-1.29,0-2.4-1.06-2.4-2.58c0-1.53,1.11-2.58,2.4-2.58
			c1.29,0,2.4,1.05,2.4,2.58C69.64,27.05,68.53,28.11,67.24,28.11z M57.93,21.28c-2.35,0-4.27,1.79-4.27,4.25
			c0,2.45,1.92,4.25,4.27,4.25c2.35,0,4.27-1.8,4.27-4.25C62.2,23.07,60.28,21.28,57.93,21.28z M57.93,28.11
			c-1.29,0-2.4-1.06-2.4-2.58c0-1.53,1.11-2.58,2.4-2.58c1.29,0,2.4,1.05,2.4,2.58C60.33,27.05,59.22,28.11,57.93,28.11z
			 M46.85,22.59v1.8h4.32c-0.13,1.02-0.47,1.76-0.98,2.27c-0.63,0.63-1.61,1.32-3.33,1.32c-2.66,0-4.74-2.14-4.74-4.8
			s2.08-4.8,4.74-4.8c1.43,0,2.48,0.56,3.25,1.29l1.27-1.27c-1.08-1.03-2.51-1.82-4.53-1.82c-3.64,0-6.7,2.96-6.7,6.61
			c0,3.64,3.06,6.61,6.7,6.61c1.97,0,3.45-0.64,4.61-1.85c1.19-1.19,1.56-2.87,1.56-4.22c0-0.42-0.03-0.81-0.1-1.13H46.85z
			 M92.16,23.99c-0.35-0.95-1.43-2.71-3.64-2.71c-2.19,0-4.01,1.72-4.01,4.25c0,2.38,1.8,4.25,4.22,4.25c1.95,0,3.08-1.19,3.54-1.88
			l-1.45-0.97c-0.48,0.71-1.14,1.18-2.09,1.18c-0.95,0-1.63-0.43-2.06-1.29l5.69-2.35L92.16,23.99z M86.36,25.41
			c-0.05-1.64,1.27-2.48,2.22-2.48c0.74,0,1.37,0.37,1.58,0.9L86.36,25.41z M81.73,29.53h1.87v-12.5h-1.87V29.53z M78.67,22.23
			h-0.06c-0.42-0.5-1.22-0.95-2.24-0.95c-2.13,0-4.08,1.87-4.08,4.27c0,2.38,1.95,4.24,4.08,4.24c1.01,0,1.82-0.45,2.24-0.97h0.06
			v0.61c0,1.63-0.87,2.5-2.27,2.5c-1.14,0-1.85-0.82-2.14-1.51l-1.63,0.68c0.47,1.13,1.71,2.51,3.77,2.51
			c2.19,0,4.04-1.29,4.04-4.43v-7.64h-1.77V22.23z M76.53,28.11c-1.29,0-2.37-1.08-2.37-2.56c0-1.5,1.08-2.59,2.37-2.59
			c1.27,0,2.27,1.1,2.27,2.59C78.8,27.03,77.8,28.11,76.53,28.11z M100.91,17.03h-4.47v12.5h1.87v-4.74h2.61
			c2.07,0,4.1-1.5,4.1-3.88S102.98,17.03,100.91,17.03z M100.96,23.05h-2.65v-4.29h2.65c1.4,0,2.19,1.16,2.19,2.14
			C103.15,21.88,102.35,23.05,100.96,23.05z M112.49,21.26c-1.35,0-2.75,0.6-3.33,1.91l1.66,0.69c0.35-0.69,1.01-0.92,1.7-0.92
			c0.97,0,1.95,0.58,1.96,1.61v0.13c-0.34-0.19-1.06-0.48-1.95-0.48c-1.79,0-3.6,0.98-3.6,2.81c0,1.67,1.46,2.75,3.1,2.75
			c1.25,0,1.95-0.56,2.38-1.22h0.06v0.97h1.8v-4.79C116.29,22.5,114.63,21.26,112.49,21.26z M112.27,28.11
			c-0.61,0-1.46-0.31-1.46-1.06c0-0.96,1.06-1.33,1.98-1.33c0.82,0,1.21,0.18,1.7,0.42C114.34,27.29,113.34,28.11,112.27,28.11z
			 M122.85,21.53l-2.14,5.42h-0.06l-2.22-5.42h-2.01l3.33,7.58l-1.9,4.21h1.95l5.13-11.79H122.85z M106.04,29.53h1.87v-12.5h-1.87
			V29.53z"/>
		
			<linearGradient id="SVGID_1_" gradientUnits="userSpaceOnUse" x1="20.9044" y1="-70.2388" x2="4.122" y2="-87.0212" gradientTransform="matrix(1 0 0 -1 0 -62)">
			<stop  offset="0" style="stop-color:#4597CF"/>
			<stop  offset="6.574450e-03" style="stop-color:#4498D0"/>
			<stop  offset="0.2601" style="stop-color:#16B9EA"/>
			<stop  offset="0.5122" style="stop-color:#4DC2EC"/>
			<stop  offset="0.7604" style="stop-color:#69C7E6"/>
			<stop  offset="1" style="stop-color:#71C9E4"/>
		</linearGradient>
		<path class="st3" d="M9.54,7.07c-0.29,0.31-0.46,0.79-0.46,1.4v22.12c0,0.62,0.17,1.1,0.46,1.4l0.07,0.07L22,19.68v-0.15v-0.15
			L9.61,6.99L9.54,7.07z"/>
		
			<linearGradient id="SVGID_2_" gradientUnits="userSpaceOnUse" x1="32.939" y1="-81.5305" x2="8.7421" y2="-81.5305" gradientTransform="matrix(1 0 0 -1 0 -62)">
			<stop  offset="0" style="stop-color:#FFE000"/>
			<stop  offset="0.4087" style="stop-color:#FCBC00"/>
			<stop  offset="0.7754" style="stop-color:#F7A300"/>
			<stop  offset="1" style="stop-color:#F59A00"/>
		</linearGradient>
		<path class="st4" d="M26.13,23.81L22,19.68v-0.15v-0.15l4.13-4.13l0.09,0.05l4.89,2.78c1.4,0.79,1.4,2.09,0,2.89l-4.89,2.78
			L26.13,23.81z"/>
		
			<linearGradient id="SVGID_3_" gradientUnits="userSpaceOnUse" x1="23.9316" y1="-83.8252" x2="1.1733" y2="-106.5835" gradientTransform="matrix(1 0 0 -1 0 -62)">
			<stop  offset="0" style="stop-color:#E8393C"/>
			<stop  offset="1" style="stop-color:#C31363"/>
		</linearGradient>
		<path class="st5" d="M26.23,23.75L22,19.53L9.54,31.99c0.46,0.49,1.22,0.55,2.08,0.06L26.23,23.75"/>
		
			<linearGradient id="SVGID_4_" gradientUnits="userSpaceOnUse" x1="6.402" y1="-61.7053" x2="16.5645" y2="-71.8678" gradientTransform="matrix(1 0 0 -1 0 -62)">
			<stop  offset="0" style="stop-color:#329F71"/>
			<stop  offset="0.0685" style="stop-color:#2EA671"/>
			<stop  offset="0.4762" style="stop-color:#53B766"/>
			<stop  offset="0.8009" style="stop-color:#6BBC65"/>
			<stop  offset="1" style="stop-color:#72BE66"/>
		</linearGradient>
		<path class="st6" d="M26.23,15.31l-14.61-8.3C10.76,6.52,10,6.58,9.54,7.07L22,19.53L26.23,15.31z"/>
		<g>
			<path class="st7" d="M26.13,23.66l-14.52,8.25c-0.81,0.46-1.54,0.43-2,0.01l0,0l-0.07,0.07l0,0l0.07,0.07l0,0
				c0.47,0.42,1.19,0.45,2-0.01l14.61-8.3L26.13,23.66z"/>
			<path class="st8" d="M9.54,31.85c-0.29-0.31-0.46-0.79-0.46-1.4v0.15c0,0.62,0.17,1.1,0.46,1.4l0.07-0.07L9.54,31.85z"/>
		</g>
		<path class="st8" d="M31.12,20.83l-4.99,2.83l0.09,0.09l4.89-2.78c0.7-0.4,1.05-0.92,1.05-1.44l0,0
			C32.11,20,31.75,20.47,31.12,20.83z"/>
		<path class="st9" d="M11.62,7.15l19.5,11.08c0.63,0.36,0.99,0.82,1.05,1.3l0,0c0-0.52-0.35-1.05-1.05-1.44L11.62,7.01
			c-1.4-0.79-2.54-0.13-2.54,1.47v0.15C9.08,7.02,10.22,6.36,11.62,7.15z"/>
		<path class="st10" d="M40.38,12.53v-6h1.83c0.92,0,1.66,0.28,2.21,0.83c0.55,0.56,0.83,1.28,0.83,2.17c0,0.89-0.28,1.61-0.83,2.17
			c-0.55,0.56-1.29,0.83-2.21,0.83H40.38z M41.16,11.79h1.06c0.69,0,1.24-0.2,1.65-0.6c0.41-0.4,0.61-0.95,0.61-1.67
			c0-0.71-0.2-1.26-0.61-1.66c-0.41-0.4-0.95-0.6-1.65-0.6h-1.06V11.79z"/>
		<path class="st10" d="M46.34,12.53v-6h0.77v6H46.34z"/>
		<path class="st10" d="M50.18,12.66c-0.44,0-0.86-0.14-1.28-0.43c-0.42-0.29-0.69-0.68-0.82-1.2l0.7-0.28
			c0.08,0.33,0.25,0.61,0.51,0.83c0.26,0.23,0.55,0.34,0.88,0.34c0.33,0,0.62-0.09,0.86-0.26c0.24-0.18,0.36-0.41,0.36-0.72
			c0-0.33-0.12-0.59-0.36-0.77c-0.24-0.18-0.61-0.35-1.13-0.51c-0.53-0.17-0.93-0.38-1.21-0.65C48.43,8.75,48.3,8.41,48.3,8
			c0-0.43,0.17-0.8,0.51-1.12c0.34-0.32,0.79-0.48,1.33-0.48c0.51,0,0.92,0.13,1.24,0.38C51.7,7.03,51.9,7.31,52,7.61L51.3,7.9
			c-0.05-0.19-0.17-0.37-0.37-0.53c-0.2-0.16-0.45-0.24-0.77-0.24c-0.3,0-0.55,0.08-0.76,0.25C49.19,7.54,49.08,7.75,49.08,8
			c0,0.22,0.1,0.41,0.29,0.57c0.19,0.15,0.48,0.29,0.85,0.41c0.3,0.1,0.54,0.19,0.74,0.28c0.2,0.09,0.4,0.21,0.6,0.36
			c0.2,0.15,0.36,0.33,0.46,0.55c0.1,0.22,0.16,0.48,0.16,0.77c0,0.29-0.06,0.55-0.18,0.78c-0.12,0.23-0.28,0.41-0.48,0.54
			c-0.2,0.13-0.41,0.24-0.64,0.31C50.66,12.63,50.42,12.66,50.18,12.66z"/>
		<path class="st10" d="M54.06,12.53h-0.77v-6h2.04c0.51,0,0.95,0.17,1.32,0.51c0.37,0.34,0.56,0.76,0.56,1.28
			c0,0.51-0.19,0.94-0.56,1.28c-0.37,0.34-0.81,0.51-1.32,0.51h-1.27V12.53z M54.06,9.36h1.29c0.32,0,0.58-0.11,0.78-0.33
			c0.2-0.22,0.29-0.46,0.29-0.72c0-0.26-0.1-0.5-0.29-0.72c-0.2-0.22-0.46-0.33-0.78-0.33h-1.29V9.36z"/>
		<path class="st10" d="M63.09,11.75c-0.59,0.61-1.32,0.91-2.2,0.91c-0.88,0-1.61-0.3-2.2-0.91c-0.59-0.61-0.88-1.35-0.88-2.22
			c0-0.88,0.29-1.62,0.88-2.22c0.59-0.61,1.32-0.91,2.2-0.91c0.87,0,1.6,0.3,2.2,0.91c0.59,0.61,0.89,1.35,0.89,2.22
			C63.97,10.41,63.68,11.15,63.09,11.75z M59.26,11.25c0.44,0.45,0.99,0.67,1.63,0.67c0.64,0,1.19-0.22,1.63-0.67
			c0.44-0.45,0.67-1.02,0.67-1.72c0-0.7-0.22-1.27-0.67-1.72c-0.44-0.45-0.99-0.67-1.63-0.67c-0.64,0-1.19,0.22-1.63,0.67
			c-0.44,0.45-0.67,1.02-0.67,1.72C58.59,10.23,58.82,10.8,59.26,11.25z"/>
		<path class="st10" d="M65.06,12.53v-6h0.94l2.92,4.67h0.03l-0.03-1.16V6.53h0.77v6h-0.8l-3.05-4.89h-0.03l0.03,1.16v3.74H65.06z"
			/>
		<path class="st10" d="M71.06,12.53v-6h0.77v6H71.06z"/>
		<path class="st10" d="M73.2,12.53v-6h2.17c0.47,0,0.88,0.16,1.22,0.46c0.34,0.31,0.52,0.7,0.52,1.17c0,0.29-0.07,0.54-0.22,0.75
			c-0.15,0.22-0.34,0.38-0.59,0.49v0.03c0.3,0.1,0.54,0.27,0.73,0.52c0.19,0.25,0.29,0.53,0.29,0.86c0,0.49-0.18,0.9-0.54,1.22
			c-0.36,0.32-0.79,0.49-1.28,0.49H73.2z M73.97,9.1h1.4c0.29,0,0.52-0.1,0.7-0.29c0.18-0.19,0.26-0.4,0.26-0.63
			s-0.08-0.44-0.26-0.63c-0.17-0.19-0.39-0.29-0.67-0.29h-1.43V9.1z M73.97,11.79h1.55c0.3,0,0.54-0.1,0.72-0.31
			c0.18-0.21,0.28-0.43,0.28-0.68c0-0.25-0.09-0.47-0.29-0.67c-0.19-0.2-0.44-0.31-0.75-0.31h-1.52V11.79z"/>
		<path class="st10" d="M78.35,12.53v-6h0.77v5.26h2.6v0.74H78.35z"/>
		<path class="st10" d="M86.19,7.27h-2.73v1.9h2.46v0.72h-2.46v1.9h2.73v0.74h-3.5v-6h3.5V7.27z"/>
		<path class="st10" d="M92.91,7.27h-2.73v1.9h2.46v0.72h-2.46v1.9h2.73v0.74h-3.5v-6h3.5V7.27z"/>
		<path class="st10" d="M94.12,12.53v-6h0.94l2.92,4.67H98l-0.03-1.16V6.53h0.77v6h-0.8l-3.05-4.89h-0.03l0.03,1.16v3.74H94.12z"/>
	</g>
</g>
</svg>
