<?xml version="1.0" encoding="utf-8"?>
<!-- Generator: Adobe Illustrator 24.1.1, SVG Export Plug-In . SVG Version: 6.00 Build 0)  -->
<svg version="1.1" id="Capa_1" xmlns="http://www.w3.org/2000/svg" xmlns:xlink="http://www.w3.org/1999/xlink" x="0px" y="0px"
	 viewBox="0 0 120 120" style="enable-background:new 0 0 120 120;" xml:space="preserve">
<style type="text/css">
	.st0{fill:#299B58;}
	.st1{fill:#4BAF73;}
	.st2{fill:#5874C0;}
</style>
<g>
	<circle class="st0" cx="69.96" cy="78.37" r="3.26"/>
	<path class="st0" d="M41.96,97.38h56v-38h-56V97.38z M44.71,74.13c0-1.1,0.9-2,2-2c4.41,0,8-3.59,8-8c0-1.1,0.9-2,2-2h26.5
		c1.1,0,2,0.9,2,2c0,4.41,3.59,8,8,8c1.1,0,2,0.9,2,2v8.5c0,1.1-0.9,2-2,2c-4.41,0-8,3.59-8,8c0,1.1-0.9,2-2,2h-26.5
		c-1.1,0-2-0.9-2-2c0-4.41-3.59-8-8-8c-1.1,0-2-0.9-2-2V74.13z"/>
	<path class="st1" d="M58.55,90.63h22.83c0.84-5.02,4.82-8.99,9.83-9.83v-4.83c-5.02-0.84-8.99-4.82-9.83-9.83H58.55
		c-0.84,5.02-4.82,8.99-9.83,9.83v4.83C53.73,81.64,57.7,85.61,58.55,90.63z M69.96,71.11c4,0,7.26,3.25,7.26,7.26
		s-3.25,7.26-7.26,7.26s-7.26-3.25-7.26-7.26S65.96,71.11,69.96,71.11z"/>
	<g>
		<path d="M63.64,42.9H26.92c-1.1,0-2-0.9-2-2V29.42c0-1.1,0.9-2,2-2h36.72c1.1,0,2,0.9,2,2V40.9C65.64,42,64.75,42.9,63.64,42.9z
			 M28.92,38.9h32.72v-7.47H28.92V38.9z"/>
		<rect x="41.46" y="46.55" width="7.65" height="4"/>
		<rect x="55.99" y="46.55" width="7.65" height="4"/>
		<rect x="26.92" y="46.55" width="7.65" height="4"/>
		<rect x="26.92" y="69.5" width="7.65" height="4"/>
		<rect x="26.92" y="61.85" width="7.65" height="4"/>
		<rect x="26.92" y="54.2" width="7.65" height="4"/>
		<path d="M34.57,82.3h-9.95c-3.63,0-6.59-2.96-6.59-6.59V25.21c0-3.63,2.96-6.59,6.59-6.59h41.31c3.63,0,6.59,2.96,6.59,6.59v26.78
			c0,1.1-0.9,2-2,2s-2-0.9-2-2V25.21c0-1.43-1.16-2.59-2.59-2.59H24.63c-1.43,0-2.59,1.16-2.59,2.59v50.49
			c0,1.43,1.16,2.59,2.59,2.59h9.95c1.1,0,2,0.9,2,2S35.67,82.3,34.57,82.3z"/>
		<path d="M99.96,101.38h-60c-1.1,0-2-0.9-2-2v-42c0-1.1,0.9-2,2-2h60c1.1,0,2,0.9,2,2v42C101.96,100.48,101.07,101.38,99.96,101.38
			z M41.96,97.38h56v-38h-56V97.38z"/>
		<path d="M83.21,94.63h-26.5c-1.1,0-2-0.9-2-2c0-4.41-3.59-8-8-8c-1.1,0-2-0.9-2-2v-8.5c0-1.1,0.9-2,2-2c4.41,0,8-3.59,8-8
			c0-1.1,0.9-2,2-2h26.5c1.1,0,2,0.9,2,2c0,4.41,3.59,8,8,8c1.1,0,2,0.9,2,2v8.5c0,1.1-0.9,2-2,2c-4.41,0-8,3.59-8,8
			C85.21,93.73,84.32,94.63,83.21,94.63z M58.55,90.63h22.83c0.84-5.02,4.82-8.99,9.83-9.83v-4.83c-5.02-0.84-8.99-4.82-9.83-9.83
			H58.55c-0.84,5.02-4.82,8.99-9.83,9.83v4.83C53.73,81.64,57.7,85.61,58.55,90.63z"/>
		<path d="M69.96,85.63c-4,0-7.26-3.25-7.26-7.26s3.25-7.26,7.26-7.26s7.26,3.25,7.26,7.26S73.96,85.63,69.96,85.63z M69.96,75.11
			c-1.79,0-3.26,1.46-3.26,3.26s1.46,3.26,3.26,3.26s3.26-1.46,3.26-3.26S71.75,75.11,69.96,75.11z"/>
	</g>
	<g>
		<path class="st2" d="M39.96,52.38h28.6c-0.02-0.12-0.04-0.25-0.04-0.38V25.21c0-1.43-1.16-2.59-2.59-2.59H24.63
			c-1.43,0-2.59,1.16-2.59,2.59v50.49c0,1.43,1.16,2.59,2.59,2.59h9.95c0.14,0,0.27,0.01,0.39,0.04V57.38
			C34.96,54.62,37.21,52.38,39.96,52.38z M49.11,50.55h-7.65v-4h7.65V50.55z M63.64,50.55h-7.65v-4h7.65V50.55z M24.92,40.9V29.42
			c0-1.1,0.9-2,2-2h36.72c1.1,0,2,0.9,2,2V40.9c0,1.1-0.9,2-2,2H26.92C25.82,42.9,24.92,42,24.92,40.9z M34.57,73.5h-7.65v-4h7.65
			V73.5z M34.57,65.85h-7.65v-4h7.65V65.85z M34.57,58.2h-7.65v-4h7.65V58.2z M34.57,50.55h-7.65v-4h7.65V50.55z"/>
	</g>
	<path d="M99.96,101.38h-60c-1.1,0-2-0.9-2-2v-42c0-1.1,0.9-2,2-2h60c1.1,0,2,0.9,2,2v42C101.96,100.48,101.07,101.38,99.96,101.38z
		 M41.96,97.38h56v-38h-56V97.38z"/>
</g>
</svg>
