<?xml version="1.0" encoding="utf-8"?>
<!-- Generator: Adobe Illustrator 24.1.1, SVG Export Plug-In . SVG Version: 6.00 Build 0)  -->
<svg version="1.1" id="Capa_1" xmlns="http://www.w3.org/2000/svg" xmlns:xlink="http://www.w3.org/1999/xlink" x="0px" y="0px"
	 viewBox="0 0 120 120" style="enable-background:new 0 0 120 120;" xml:space="preserve">
<g>
	<path d="M60,20c-23.16,0-42,15.7-42,35s18.84,35,42,35c4.21,0,8.38-0.52,12.4-1.56l22.7,11.35C95.39,99.93,95.7,100,96,100
		c0.42,0,0.83-0.13,1.18-0.39c0.6-0.44,0.91-1.19,0.79-1.93l-3.57-22.61C99.38,69.18,102,62.26,102,55C102,35.7,83.16,20,60,20z
		 M90.31,74.79l3.11,19.69l-19.9-9.95c-0.28-0.14-0.59-0.21-0.89-0.21c-0.18,0-0.36,0.02-0.53,0.07C68.18,85.46,64.12,86,60,86
		c-20.95,0-38-13.91-38-31s17.05-31,38-31s38,13.91,38,31c0,6.56-2.49,12.83-7.21,18.15C90.39,73.59,90.22,74.2,90.31,74.79z"/>
	<path d="M60,61.47c1.1,0,2-0.9,2-2v-25c0-1.1-0.9-2-2-2s-2,0.9-2,2v25C58,60.57,58.9,61.47,60,61.47z"/>
	<circle cx="60" cy="72.47" r="4"/>
</g>
</svg>
