<?xml version="1.0" encoding="utf-8"?>
<!-- Generator: Adobe Illustrator 24.0.2, SVG Export Plug-In . SVG Version: 6.00 Build 0)  -->
<svg version="1.1" id="Capa_1" xmlns="http://www.w3.org/2000/svg" xmlns:xlink="http://www.w3.org/1999/xlink" x="0px" y="0px"
	 viewBox="0 0 250 250" style="enable-background:new 0 0 250 250;" xml:space="preserve">
<g>
	<path d="M224.83,217.7c3.64-0.3,7.11-1.67,9.98-4c4.25-3.45,6.69-8.57,6.69-14.03c0-4.04-1.31-7.86-3.79-11.05
		c-1.37-1.76-1.64-4.25-0.69-6.49v0c1.27-3.01,1.49-6.34,0.63-9.61c-1.34-5.12-5.56-9.22-10.75-10.43
		c-4.55-1.06-9.21-0.05-12.79,2.79c-3.56,2.82-5.61,7.04-5.61,11.57c0,1.88,0.35,3.72,1.05,5.46c0.97,2.43,0.7,5-0.72,6.88
		c-3.04,4-4.24,8.98-3.4,14c1.21,7.23,6.85,13.09,14.01,14.58c0.8,0.17,1.59,0.26,2.39,0.32V238h-17v-13.28h-10V25.6h-16.67V9H71.83
		v16.6H55.17v199.13h-10V238h-17V217.7c3.64-0.3,7.11-1.67,9.97-4c4.25-3.45,6.69-8.57,6.69-14.03c0-4.04-1.31-7.86-3.79-11.05
		c-1.37-1.76-1.64-4.25-0.69-6.49v0c1.27-3.01,1.49-6.34,0.63-9.61c-1.34-5.12-5.56-9.22-10.75-10.43
		c-4.55-1.06-9.22-0.05-12.8,2.79c-3.56,2.82-5.61,7.04-5.61,11.57c0,1.88,0.35,3.72,1.05,5.46c0.97,2.43,0.7,5-0.72,6.88
		c-3.04,4-4.24,8.98-3.4,14c1.21,7.23,6.85,13.09,14.01,14.58c0.8,0.17,1.59,0.26,2.39,0.32V238H13.33v3h31.83h159.67h31.83v-3
		h-11.83V217.7z M220.05,214.43c-5.97-1.24-10.65-6.12-11.67-12.14c-0.71-4.21,0.3-8.36,2.83-11.7c2.07-2.73,2.49-6.39,1.12-9.8
		c-0.55-1.38-0.84-2.84-0.84-4.34c0-3.61,1.63-6.97,4.47-9.22c2.11-1.67,4.7-2.55,7.38-2.55c0.95,0,1.91,0.11,2.86,0.33
		c4.12,0.96,7.47,4.21,8.53,8.27c0.69,2.63,0.52,5.29-0.5,7.7c-1.36,3.23-0.94,6.87,1.09,9.49c2.06,2.66,3.16,5.85,3.16,9.22
		c0,4.55-2.04,8.82-5.58,11.7c-2.33,1.89-5.13,3-8.08,3.3v-18.32c0-0.83-0.67-1.5-1.5-1.5s-1.5,0.67-1.5,1.5v18.34
		C221.24,214.64,220.65,214.55,220.05,214.43z M23.39,214.43c-5.97-1.24-10.65-6.12-11.67-12.14c-0.71-4.21,0.3-8.36,2.83-11.7
		c2.07-2.73,2.49-6.39,1.12-9.8c-0.55-1.38-0.84-2.84-0.84-4.34c0-3.61,1.63-6.97,4.47-9.22c2.11-1.67,4.7-2.55,7.38-2.55
		c0.95,0,1.91,0.11,2.86,0.33c4.12,0.96,7.47,4.21,8.53,8.27c0.69,2.63,0.52,5.29-0.5,7.7c-1.36,3.23-0.95,6.87,1.09,9.49
		c2.06,2.66,3.16,5.85,3.16,9.22c0,4.55-2.04,8.82-5.58,11.7c-2.33,1.89-5.13,3-8.08,3.3v-18.32c0-0.83-0.67-1.5-1.5-1.5
		s-1.5,0.67-1.5,1.5v18.34C24.57,214.64,23.98,214.55,23.39,214.43z M178.17,28.59h13.67v196.14h-13.67V28.59z M74.83,45.18h20.33
		v20.24H74.83V45.18z M74.83,42.19v-13.6h20.33v13.6H74.83z M95.17,68.42v13.6H74.83v-13.6H95.17z M74.83,85.01h20.33v20.24H74.83
		V85.01z M95.17,108.24v13.6H74.83v-13.6H95.17z M74.83,124.84h20.33v20.24H74.83V124.84z M95.17,148.07v13.6H74.83v-13.6H95.17z
		 M74.83,164.67h20.33v20.24H74.83V164.67z M95.17,187.9v13.6H74.83v-13.6H95.17z M74.83,204.49h20.33v20.24H74.83V204.49z
		 M111.83,224.73H98.17V28.59h13.67V224.73z M135.17,184.9h-20.33v-20.24h20.33V184.9z M135.17,187.9v13.6h-20.33v-13.6H135.17z
		 M114.83,161.67v-13.6h20.33v13.6H114.83z M135.17,145.08h-20.33v-20.24h20.33V145.08z M114.83,121.84v-13.6h20.33v13.6H114.83z
		 M135.17,105.25h-20.33V85.01h20.33V105.25z M114.83,82.02v-13.6h20.33v13.6H114.83z M135.17,65.42h-20.33V45.18h20.33V65.42z
		 M114.83,42.19v-13.6h20.33v13.6H114.83z M114.83,204.49h20.33v20.24h-20.33V204.49z M151.83,224.73h-13.67V28.59h13.67V224.73z
		 M175.17,184.9h-20.33v-20.24h20.33V184.9z M175.17,187.9v13.6h-20.33v-13.6H175.17z M154.83,161.67v-13.6h20.33v13.6H154.83z
		 M175.17,145.08h-20.33v-20.24h20.33V145.08z M154.83,121.84v-13.6h20.33v13.6H154.83z M175.17,105.25h-20.33V85.01h20.33V105.25z
		 M154.83,82.02v-13.6h20.33v13.6H154.83z M175.17,65.42h-20.33V45.18h20.33V65.42z M154.83,42.19v-13.6h20.33v13.6H154.83z
		 M154.83,204.49h20.33v20.24h-20.33V204.49z M74.83,12h100.33v13.6H74.83V12z M71.83,224.73H58.17V28.59h13.67V224.73z M48.17,238
		v-10.28h153.67V238H48.17z"/>
</g>
</svg>
