<?xml version="1.0" encoding="utf-8"?>
<!-- Generator: Adobe Illustrator 24.1.1, SVG Export Plug-In . SVG Version: 6.00 Build 0)  -->
<svg version="1.1" id="Capa_1" xmlns="http://www.w3.org/2000/svg" xmlns:xlink="http://www.w3.org/1999/xlink" x="0px" y="0px"
	 viewBox="0 0 120 120" style="enable-background:new 0 0 120 120;" xml:space="preserve">
<style type="text/css">
	.st0{fill:#4BAF73;}
	.st1{fill:#FFAC64;}
</style>
<g>
	<path class="st0" d="M73.5,101h26V59h-26V101z M80.5,67h12c1.1,0,2,0.9,2,2s-0.9,2-2,2h-12c-1.1,0-2-0.9-2-2S79.4,67,80.5,67z
		 M80.5,78h12c1.1,0,2,0.9,2,2s-0.9,2-2,2h-12c-1.1,0-2-0.9-2-2S79.4,78,80.5,78z M80.5,89h12c1.1,0,2,0.9,2,2s-0.9,2-2,2h-12
		c-1.1,0-2-0.9-2-2S79.4,89,80.5,89z"/>
	<path class="st0" d="M20.5,101h26V71h-26V101z M27.5,78h12c1.1,0,2,0.9,2,2s-0.9,2-2,2h-12c-1.1,0-2-0.9-2-2S26.4,78,27.5,78z
		 M27.5,89h12c1.1,0,2,0.9,2,2s-0.9,2-2,2h-12c-1.1,0-2-0.9-2-2S26.4,89,27.5,89z"/>
	<path d="M36.5,63c1.1,0,2-0.9,2-2V29h42v20c0,1.1,0.9,2,2,2s2-0.9,2-2V27c0-1.1-0.9-2-2-2h-21v-8c0-1.1-0.9-2-2-2s-2,0.9-2,2v8h-21
		c-1.1,0-2,0.9-2,2v34C34.5,62.1,35.4,63,36.5,63z"/>
	<path d="M39.5,78h-12c-1.1,0-2,0.9-2,2s0.9,2,2,2h12c1.1,0,2-0.9,2-2S40.6,78,39.5,78z"/>
	<path d="M39.5,89h-12c-1.1,0-2,0.9-2,2s0.9,2,2,2h12c1.1,0,2-0.9,2-2S40.6,89,39.5,89z"/>
	<path d="M80.5,71h12c1.1,0,2-0.9,2-2s-0.9-2-2-2h-12c-1.1,0-2,0.9-2,2S79.4,71,80.5,71z"/>
	<path d="M51.5,41c-1.1,0-2,0.9-2,2s0.9,2,2,2h16c1.1,0,2-0.9,2-2s-0.9-2-2-2H51.5z"/>
	<path d="M80.5,82h12c1.1,0,2-0.9,2-2s-0.9-2-2-2h-12c-1.1,0-2,0.9-2,2S79.4,82,80.5,82z"/>
	<path d="M80.5,93h12c1.1,0,2-0.9,2-2s-0.9-2-2-2h-12c-1.1,0-2,0.9-2,2S79.4,93,80.5,93z"/>
	<path d="M101.5,55h-30c-1.1,0-2,0.9-2,2v44h-19V69c0-1.1-0.9-2-2-2h-30c-1.1,0-2,0.9-2,2v34c0,1.1,0.9,2,2,2h83c1.1,0,2-0.9,2-2V57
		C103.5,55.9,102.6,55,101.5,55z M20.5,71h26v30h-26V71z M99.5,101h-26V59h26V101z"/>
	<path class="st1" d="M80.5,29h-42v32h10c4.41,0,8,3.59,8,8v26h7V57c0-4.41,3.59-8,8-8h9V29z M67.5,45h-16c-1.1,0-2-0.9-2-2
		s0.9-2,2-2h16c1.1,0,2,0.9,2,2S68.6,45,67.5,45z"/>
</g>
</svg>
