<?xml version="1.0" encoding="utf-8"?>
<!-- Generator: Adobe Illustrator 24.0.2, SVG Export Plug-In . SVG Version: 6.00 Build 0)  -->
<svg version="1.1" id="Capa_1" xmlns="http://www.w3.org/2000/svg" xmlns:xlink="http://www.w3.org/1999/xlink" x="0px" y="0px"
	 viewBox="0 0 250 250" style="enable-background:new 0 0 250 250;" xml:space="preserve">
<g>
	<path d="M118.04,166.38h100.34c2.48,0,4.5-2.02,4.5-4.5V15c0-2.48-2.02-4.5-4.5-4.5H118.04c-2.48,0-4.5,2.02-4.5,4.5v146.88
		C113.54,164.36,115.56,166.38,118.04,166.38z M116.54,15c0-0.83,0.67-1.5,1.5-1.5h100.34c0.83,0,1.5,0.67,1.5,1.5v146.88
		c0,0.83-0.67,1.5-1.5,1.5H118.04c-0.83,0-1.5-0.67-1.5-1.5V15z"/>
	<path d="M130,91.6h16.62c0.83,0,1.5-0.67,1.5-1.5V73.49c0-0.83-0.67-1.5-1.5-1.5H130c-0.83,0-1.5,0.67-1.5,1.5V90.1
		C128.5,90.93,129.17,91.6,130,91.6z M131.5,74.99h13.62V88.6H131.5V74.99z"/>
	<path d="M130,61.69h76.43c0.83,0,1.5-0.67,1.5-1.5V26.96c0-0.83-0.67-1.5-1.5-1.5H130c-0.83,0-1.5,0.67-1.5,1.5v33.24
		C128.5,61.02,129.17,61.69,130,61.69z M131.5,28.46h73.43v30.24H131.5V28.46z"/>
	<path d="M176.52,71.99H159.9c-0.83,0-1.5,0.67-1.5,1.5V90.1c0,0.83,0.67,1.5,1.5,1.5h16.62c0.83,0,1.5-0.67,1.5-1.5V73.49
		C178.02,72.66,177.35,71.99,176.52,71.99z M175.02,88.6H161.4V74.99h13.62V88.6z"/>
	<path d="M206.43,71.99h-16.62c-0.83,0-1.5,0.67-1.5,1.5V90.1c0,0.83,0.67,1.5,1.5,1.5h16.62c0.83,0,1.5-0.67,1.5-1.5V73.49
		C207.93,72.66,207.26,71.99,206.43,71.99z M204.93,88.6h-13.62V74.99h13.62V88.6z"/>
	<path d="M130,121.51h16.62c0.83,0,1.5-0.67,1.5-1.5V103.4c0-0.83-0.67-1.5-1.5-1.5H130c-0.83,0-1.5,0.67-1.5,1.5v16.62
		C128.5,120.84,129.17,121.51,130,121.51z M131.5,104.9h13.62v13.62H131.5V104.9z"/>
	<path d="M176.52,101.9H159.9c-0.83,0-1.5,0.67-1.5,1.5v16.62c0,0.83,0.67,1.5,1.5,1.5h16.62c0.83,0,1.5-0.67,1.5-1.5V103.4
		C178.02,102.57,177.35,101.9,176.52,101.9z M175.02,118.51H161.4V104.9h13.62V118.51z"/>
	<path d="M130,151.43h16.62c0.83,0,1.5-0.67,1.5-1.5v-16.62c0-0.83-0.67-1.5-1.5-1.5H130c-0.83,0-1.5,0.67-1.5,1.5v16.62
		C128.5,150.75,129.17,151.43,130,151.43z M131.5,134.81h13.62v13.62H131.5V134.81z"/>
	<path d="M176.52,131.81H159.9c-0.83,0-1.5,0.67-1.5,1.5v16.62c0,0.83,0.67,1.5,1.5,1.5h16.62c0.83,0,1.5-0.67,1.5-1.5v-16.62
		C178.02,132.48,177.35,131.81,176.52,131.81z M175.02,148.43H161.4v-13.62h13.62V148.43z"/>
	<path d="M206.43,101.9h-16.62c-0.83,0-1.5,0.67-1.5,1.5v46.53c0,0.83,0.67,1.5,1.5,1.5h16.62c0.83,0,1.5-0.67,1.5-1.5V103.4
		C207.93,102.57,207.26,101.9,206.43,101.9z M204.93,148.43h-13.62V104.9h13.62V148.43z"/>
	<path d="M90.49,109.15c0.27,0.45,0.76,0.73,1.29,0.73s1.02-0.28,1.29-0.73l9.97-16.62c0.14-0.23,0.21-0.5,0.21-0.77V21.97
		c0-6.33-5.15-11.47-11.47-11.47s-11.47,5.15-11.47,11.47v69.79c0,0.27,0.07,0.54,0.21,0.77L90.49,109.15z M91.78,105.47
		l-8.47-14.12V33.44h16.94v57.91L91.78,105.47z M91.78,13.5c4.67,0,8.47,3.8,8.47,8.47v8.47H83.31v-8.47
		C83.31,17.3,87.11,13.5,91.78,13.5z"/>
	<path d="M236.5,58.53v144.74H46.73v-2.85v-0.79V60.03h25.09v-3H46.73v-7.67c0-9.99-8.13-18.12-18.12-18.12S10.5,39.36,10.5,49.35
		v149.56v10.73c0,16.46,13.39,29.86,29.85,29.86h172.54v-19.94h26.61v-13.29v-3V58.53H236.5z M13.5,188.93V49.35
		c0-8.34,6.78-15.12,15.12-15.12s15.12,6.78,15.12,15.12v139.97c-0.3-0.48-0.63-0.95-0.97-1.4c-0.18-0.23-0.36-0.46-0.54-0.68
		c-0.1-0.12-0.2-0.24-0.3-0.36c-0.31-0.35-0.63-0.68-0.96-1.01c-0.07-0.07-0.15-0.14-0.22-0.21c-0.37-0.35-0.74-0.68-1.14-1
		c-0.01-0.01-0.02-0.01-0.03-0.02c-0.42-0.34-0.86-0.65-1.31-0.95c-0.01-0.01-0.02-0.02-0.03-0.02c-0.44-0.29-0.9-0.56-1.37-0.81
		c-0.04-0.02-0.08-0.04-0.12-0.07c-0.92-0.49-1.89-0.89-2.89-1.2c-0.07-0.02-0.13-0.04-0.2-0.06c-0.47-0.14-0.95-0.26-1.44-0.36
		c-0.1-0.02-0.2-0.04-0.3-0.06c-0.48-0.09-0.97-0.17-1.47-0.22c-0.02,0-0.03-0.01-0.04-0.01c-4.63-0.44-9.08,0.84-12.7,3.6
		c-0.43,0.33-0.85,0.66-1.25,1.03c-0.43,0.39-0.82,0.8-1.21,1.22c-0.07,0.08-0.14,0.15-0.21,0.23c-0.36,0.41-0.7,0.84-1.02,1.28
		c-0.06,0.08-0.12,0.17-0.18,0.25C13.71,188.63,13.6,188.78,13.5,188.93z M209.89,236.5H40.35c-14.81,0-26.85-12.05-26.85-26.86
		v-10.73c0-0.53,0.03-1.06,0.08-1.58c0.15-1.37,0.5-2.7,1-3.97c0.07-0.18,0.13-0.38,0.21-0.56c0.84-1.91,2.08-3.64,3.66-5.07
		c0.02-0.02,0.04-0.03,0.05-0.05c0.36-0.33,0.73-0.63,1.12-0.92c0.13-0.1,0.27-0.18,0.4-0.27c0.28-0.19,0.56-0.39,0.85-0.56
		c0.16-0.1,0.32-0.18,0.48-0.27c0.27-0.15,0.55-0.3,0.83-0.43c0.17-0.08,0.35-0.16,0.52-0.23c0.28-0.12,0.57-0.23,0.86-0.33
		c0.18-0.06,0.36-0.12,0.54-0.18c0.3-0.09,0.6-0.17,0.91-0.25c0.18-0.04,0.35-0.09,0.53-0.12c0.33-0.07,0.66-0.12,1-0.16
		c0.16-0.02,0.32-0.05,0.48-0.07c0.41-0.04,0.82-0.06,1.23-0.07c0.09,0,0.18-0.01,0.28-0.01c0.52,0,1.05,0.02,1.58,0.07
		c0.18,0.02,0.35,0.05,0.52,0.08c0.29,0.04,0.58,0.07,0.86,0.13c0.17,0.03,0.34,0.09,0.51,0.13c0.28,0.07,0.57,0.13,0.85,0.21
		c0.15,0.05,0.3,0.11,0.45,0.16c0.29,0.1,0.57,0.19,0.85,0.31c0.15,0.06,0.29,0.14,0.43,0.2c0.27,0.12,0.55,0.25,0.81,0.39
		c0.15,0.08,0.3,0.18,0.45,0.26c0.24,0.14,0.48,0.28,0.72,0.43c0.18,0.12,0.35,0.25,0.52,0.37c0.19,0.14,0.39,0.27,0.57,0.42
		c0.21,0.17,0.42,0.35,0.62,0.53c0.13,0.11,0.26,0.22,0.38,0.34c0.26,0.24,0.5,0.5,0.74,0.76c0.06,0.06,0.12,0.12,0.17,0.18
		c2.4,2.7,3.93,6.28,4.09,10.21l0.06,0.74v3.55v3v13.29h166.16V236.5z M236.5,216.56h-23.61H46.73v-10.29H236.5V216.56z"/>
	<polygon points="71.84,73.65 60.37,73.65 60.37,85.12 63.37,85.12 63.37,76.65 71.84,76.65 	"/>
	<polygon points="219.88,186.65 211.41,186.65 211.41,189.65 222.88,189.65 222.88,178.18 219.88,178.18 	"/>
	<polygon points="60.37,178.18 60.37,189.65 71.84,189.65 71.84,186.65 63.37,186.65 63.37,178.18 	"/>
	<polygon points="90.28,189.65 192.98,189.65 192.98,178.18 189.98,178.18 189.98,186.65 93.28,186.65 93.28,137.85 82.63,137.85 
		99.39,123.89 97.46,121.58 74.34,140.85 90.28,140.85 	"/>
</g>
</svg>
