<?xml version="1.0" encoding="utf-8"?>
<!-- Generator: Adobe Illustrator 24.1.1, SVG Export Plug-In . SVG Version: 6.00 Build 0)  -->
<svg version="1.1" id="Capa_1" xmlns="http://www.w3.org/2000/svg" xmlns:xlink="http://www.w3.org/1999/xlink" x="0px" y="0px"
	 viewBox="0 0 120 120" style="enable-background:new 0 0 120 120;" xml:space="preserve">
<style type="text/css">
	.st0{fill:#5874C0;}
	.st1{fill:#FFAC64;}
</style>
<g>
	<path class="st0" d="M87.08,47.17c-0.75,0.75-2.08,0.75-2.83,0L72.93,35.86c-0.78-0.78-0.78-2.05,0-2.83L84.36,21.6
		c-1.45-0.34-2.92-0.51-4.38-0.51c-4.93,0-9.77,1.93-13.41,5.57c-5.15,5.15-6.89,12.66-4.52,19.58c0.26,0.75,0.05,1.58-0.53,2.11
		l-39.67,36.7c-0.4,0.37-0.63,0.88-0.64,1.43c-0.01,0.55,0.2,1.06,0.59,1.45l10.38,10.38c0.39,0.39,0.91,0.6,1.45,0.58
		c0.55-0.01,1.06-0.24,1.43-0.64l36.7-39.68c0.54-0.58,1.37-0.79,2.11-0.54c6.92,2.36,14.43,0.63,19.58-4.52
		c4.72-4.72,6.56-11.44,5.06-17.79L87.08,47.17z"/>
	<path d="M86.27,67.28c-0.78-0.78-2.05-0.78-2.83,0c-0.78,0.78-0.78,2.05,0,2.83l9.08,9.08c3.9,3.9,3.9,10.24,0,14.14
		c-3.9,3.9-10.24,3.9-14.14,0L65.37,80.33c-0.78-0.78-2.05-0.78-2.83,0c-0.78,0.78-0.78,2.05,0,2.83l13.01,13.01
		c2.73,2.73,6.31,4.09,9.9,4.09s7.17-1.36,9.9-4.09c5.46-5.46,5.46-14.34,0-19.8L86.27,67.28z"/>
	<path d="M99.78,30.07c-0.65-0.13-1.33,0.08-1.8,0.55L85.66,42.93l-8.49-8.49l12.31-12.31c0.47-0.47,0.68-1.15,0.55-1.8
		s-0.58-1.2-1.19-1.46c-8.64-3.59-18.49-1.64-25.1,4.97c-5.93,5.93-8.12,14.42-5.87,22.44l-1.55,1.44L45.03,37.31v-6.19
		c0-0.53-0.21-1.04-0.59-1.41L33.13,18.39c-0.75-0.75-2.08-0.75-2.83,0L17.57,31.11c-0.78,0.78-0.78,2.05,0,2.83l11.31,11.31
		c0.38,0.38,0.88,0.59,1.41,0.59h6.19l10.05,10.91L19.12,82.12c-1.21,1.12-1.89,2.64-1.93,4.29c-0.03,1.65,0.59,3.2,1.76,4.36
		l10.38,10.38c1.14,1.14,2.64,1.76,4.24,1.76c0.04,0,0.08,0,0.12,0c1.65-0.03,3.17-0.72,4.29-1.92l35.84-38.75
		c8.02,2.25,16.51,0.06,22.44-5.87c6.61-6.61,8.56-16.46,4.97-25.1C100.98,30.64,100.43,30.2,99.78,30.07z M38.84,42.49
		c-0.38-0.41-0.91-0.64-1.47-0.64h-6.24l-9.31-9.31l9.9-9.9l9.31,9.31v6.24c0,0.56,0.23,1.09,0.64,1.47l11.7,10.78l-3.89,3.6
		L38.84,42.49z M93.44,53.53c-5.15,5.15-12.66,6.88-19.58,4.52c-0.75-0.25-1.58-0.05-2.11,0.54l-36.7,39.68
		c-0.37,0.4-0.88,0.63-1.43,0.64c-0.54,0.02-1.07-0.2-1.45-0.58L21.78,87.94c-0.39-0.39-0.6-0.9-0.59-1.45
		c0.01-0.55,0.24-1.06,0.64-1.43l39.67-36.7c0.58-0.54,0.79-1.37,0.53-2.11c-2.36-6.92-0.63-14.43,4.52-19.58
		c3.64-3.64,8.48-5.57,13.41-5.57c1.46,0,2.93,0.17,4.38,0.51L72.93,33.03c-0.78,0.78-0.78,2.05,0,2.83l11.31,11.31
		c0.75,0.75,2.08,0.75,2.83,0L98.5,35.75C100,42.09,98.16,48.81,93.44,53.53z"/>
	<path class="st1" d="M92.53,93.34c3.9-3.9,3.9-10.24,0-14.14l-8.37-8.37c-1.34,0.18-2.69,0.27-4.06,0.27c0,0,0,0,0,0
		c-1.13,0-2.27-0.06-3.39-0.19l-9.97,10.77l11.65,11.65C82.28,97.24,88.63,97.24,92.53,93.34z"/>
</g>
</svg>
