<?xml version="1.0" encoding="utf-8"?>
<!-- Generator: Adobe Illustrator 24.1.1, SVG Export Plug-In . SVG Version: 6.00 Build 0)  -->
<svg version="1.1" id="Capa_1" xmlns="http://www.w3.org/2000/svg" xmlns:xlink="http://www.w3.org/1999/xlink" x="0px" y="0px"
	 viewBox="0 0 120 120" style="enable-background:new 0 0 120 120;" xml:space="preserve">
<style type="text/css">
	.st0{fill:#5874C0;}
	.st1{fill:#FF9538;}
</style>
<g>
	<rect x="28.69" y="90.44" class="st0" width="40" height="8"/>
	<rect x="83.26" y="47.98" transform="matrix(0.7071 -0.7071 0.7071 0.7071 -18.2722 79.8581)" class="st1" width="8" height="28"/>
	<path d="M80.19,102.44c1.1,0,2-0.9,2-2s-0.9-2-2-2h-7.5v-10c0-1.1-0.9-2-2-2h-44c-1.1,0-2,0.9-2,2v10h-7.5c-1.1,0-2,0.9-2,2
		s0.9,2,2,2H80.19z M28.69,90.44h40v8h-40V90.44z"/>
	<path d="M57.56,69.06c0.39,0.39,0.9,0.59,1.41,0.59s1.02-0.2,1.41-0.59L71.7,57.74l21.21,21.21c0.39,0.39,0.9,0.59,1.41,0.59
		s1.02-0.2,1.41-0.59l8.49-8.49c0.38-0.38,0.59-0.88,0.59-1.41s-0.21-1.04-0.59-1.41L83.01,46.43l11.31-11.31
		c0.38-0.38,0.59-0.88,0.59-1.41s-0.21-1.04-0.59-1.41L80.19,18.14c-0.78-0.78-2.05-0.78-2.83,0L43.42,52.08
		c-0.38,0.38-0.59,0.88-0.59,1.41s0.21,1.04,0.59,1.41L57.56,69.06z M80.19,49.26l19.8,19.8l-5.66,5.66l-19.8-19.8L80.19,49.26z
		 M78.77,22.39L90.09,33.7L58.97,64.81L47.66,53.5L78.77,22.39z"/>
	<path d="M19.19,79.44h15c1.1,0,2-0.9,2-2s-0.9-2-2-2h-15c-1.1,0-2,0.9-2,2S18.08,79.44,19.19,79.44z"/>
	<path d="M35.77,67.86c0.39,0.39,0.9,0.59,1.41,0.59s1.02-0.2,1.41-0.59c0.78-0.78,0.78-2.05,0-2.83l-10-10
		c-0.78-0.78-2.05-0.78-2.83,0c-0.78,0.78-0.78,2.05,0,2.83L35.77,67.86z"/>
</g>
</svg>
