<?xml version="1.0" encoding="utf-8"?>
<!-- Generator: Adobe Illustrator 24.1.1, SVG Export Plug-In . SVG Version: 6.00 Build 0)  -->
<svg version="1.1" id="Capa_1" xmlns="http://www.w3.org/2000/svg" xmlns:xlink="http://www.w3.org/1999/xlink" x="0px" y="0px"
	 viewBox="0 0 120 120" style="enable-background:new 0 0 120 120;" xml:space="preserve">
<style type="text/css">
	.st0{fill:#FFAC64;}
	.st1{fill:#C55D00;}
</style>
<g>
	<path class="st0" d="M72,52H48c-2.21,0-4,1.79-4,4v18h4.08c2.16,0,3.91,1.69,4,3.85L52.92,100h14.15l0.85-22.15
		c0.08-2.16,1.84-3.85,4-3.85H76V56C76,53.79,74.21,52,72,52z"/>
	<circle class="st0" cx="60" cy="29" r="9"/>
	<path class="st1" d="M96.67,51.15h-13.7C83.64,52.67,84,54.31,84,56v20c0,2-0.99,3.77-2.5,4.86v12.29h11.06l0.61-19.36
		c0.07-2.04,1.58-3.64,3.44-3.64H99V54.46C99,52.67,97.93,51.15,96.67,51.15z"/>
	<path class="st1" d="M36,76V56c0-1.69,0.36-3.33,1.04-4.85h-13.7c-1.27,0-2.33,1.51-2.33,3.31v15.69h2.39
		c1.87,0,3.38,1.6,3.44,3.64l0.61,19.36H32h6.5V80.86C36.99,79.77,36,78,36,76z"/>
	<circle class="st1" cx="88" cy="31.21" r="5.94"/>
	<path d="M60,42c7.17,0,13-5.83,13-13s-5.83-13-13-13s-13,5.83-13,13S52.83,42,60,42z M60,20c4.96,0,9,4.04,9,9s-4.04,9-9,9
		s-9-4.04-9-9S55.04,20,60,20z"/>
	<path d="M88,41.15c5.48,0,9.94-4.46,9.94-9.94s-4.46-9.94-9.94-9.94s-9.94,4.46-9.94,9.94S82.52,41.15,88,41.15z M88,25.27
		c3.28,0,5.94,2.67,5.94,5.94s-2.67,5.94-5.94,5.94s-5.94-2.67-5.94-5.94S84.72,25.27,88,25.27z"/>
	<path d="M32,41.15c5.48,0,9.94-4.46,9.94-9.94s-4.46-9.94-9.94-9.94s-9.94,4.46-9.94,9.94S26.52,41.15,32,41.15z M32,25.27
		c3.28,0,5.94,2.67,5.94,5.94s-2.67,5.94-5.94,5.94s-5.94-2.67-5.94-5.94S28.72,25.27,32,25.27z"/>
	<path d="M96.67,47.15H79.33c-1.46,0-2.84,0.59-3.94,1.61C74.36,48.28,73.21,48,72,48H48c-1.21,0-2.36,0.28-3.39,0.76
		c-1.11-1.02-2.49-1.61-3.94-1.61H23.33c-3.49,0-6.33,3.28-6.33,7.31v17.69c0,1.1,0.9,2,2,2h3.84l0.66,21.06
		c0.03,1.08,0.92,1.94,2,1.94H32h6.5c1.1,0,2-0.9,2-2s-0.9-2-2-2H32h-4.56l-0.61-19.36c-0.06-2.04-1.57-3.64-3.44-3.64H21V54.46
		c0-1.79,1.07-3.31,2.33-3.31h17.33c0.31,0,0.58,0.09,0.81,0.23C40.55,52.69,40,54.28,40,56v20c0,1.1,0.9,2,2,2l6.08,0L49,102.08
		c0.04,1.07,0.92,1.92,2,1.92h18c1.07,0,1.96-0.85,2-1.92L71.92,78H78c1.1,0,2-0.9,2-2V56c0-1.72-0.55-3.31-1.48-4.62
		c0.24-0.13,0.5-0.23,0.81-0.23h17.33c1.26,0,2.33,1.51,2.33,3.31v15.69h-2.39c-1.87,0-3.38,1.6-3.44,3.64l-0.61,19.36H81.5
		c-1.1,0-2,0.9-2,2s0.9,2,2,2h13c1.08,0,1.96-0.86,2-1.94l0.67-21.06H101c1.1,0,2-0.9,2-2V54.46C103,50.43,100.16,47.15,96.67,47.15
		z M76,74h-4.08c-2.16,0-3.91,1.69-4,3.85L67.08,100H52.92l-0.85-22.15c-0.08-2.16-1.84-3.85-4-3.85H44V56c0-2.21,1.79-4,4-4h24
		c2.21,0,4,1.79,4,4V74z"/>
	<circle class="st1" cx="32" cy="31.21" r="5.94"/>
	<path d="M60,42c7.17,0,13-5.83,13-13s-5.83-13-13-13s-13,5.83-13,13S52.83,42,60,42z M60,20c4.96,0,9,4.04,9,9s-4.04,9-9,9
		s-9-4.04-9-9S55.04,20,60,20z"/>
	<path d="M88,41.15c5.48,0,9.94-4.46,9.94-9.94s-4.46-9.94-9.94-9.94s-9.94,4.46-9.94,9.94S82.52,41.15,88,41.15z M88,25.27
		c3.28,0,5.94,2.67,5.94,5.94s-2.67,5.94-5.94,5.94s-5.94-2.67-5.94-5.94S84.72,25.27,88,25.27z"/>
	<path d="M32,41.15c5.48,0,9.94-4.46,9.94-9.94s-4.46-9.94-9.94-9.94s-9.94,4.46-9.94,9.94S26.52,41.15,32,41.15z M32,25.27
		c3.28,0,5.94,2.67,5.94,5.94s-2.67,5.94-5.94,5.94s-5.94-2.67-5.94-5.94S28.72,25.27,32,25.27z"/>
	<path d="M96.67,47.15H79.33c-1.46,0-2.84,0.59-3.94,1.61C74.36,48.28,73.21,48,72,48H48c-1.21,0-2.36,0.28-3.39,0.76
		c-1.11-1.02-2.49-1.61-3.94-1.61H23.33c-3.49,0-6.33,3.28-6.33,7.31v17.69c0,1.1,0.9,2,2,2h3.84l0.66,21.06
		c0.03,1.08,0.92,1.94,2,1.94H32h6.5c1.1,0,2-0.9,2-2s-0.9-2-2-2H32h-4.56l-0.61-19.36c-0.06-2.04-1.57-3.64-3.44-3.64H21V54.46
		c0-1.79,1.07-3.31,2.33-3.31h17.33c0.31,0,0.58,0.09,0.81,0.23C40.55,52.69,40,54.28,40,56v20c0,1.1,0.9,2,2,2l6.08,0L49,102.08
		c0.04,1.07,0.92,1.92,2,1.92h18c1.07,0,1.96-0.85,2-1.92L71.92,78H78c1.1,0,2-0.9,2-2V56c0-1.72-0.55-3.31-1.48-4.62
		c0.24-0.13,0.5-0.23,0.81-0.23h17.33c1.26,0,2.33,1.51,2.33,3.31v15.69h-2.39c-1.87,0-3.38,1.6-3.44,3.64l-0.61,19.36H81.5
		c-1.1,0-2,0.9-2,2s0.9,2,2,2h13c1.08,0,1.96-0.86,2-1.94l0.67-21.06H101c1.1,0,2-0.9,2-2V54.46C103,50.43,100.16,47.15,96.67,47.15
		z M76,74h-4.08c-2.16,0-3.91,1.69-4,3.85L67.08,100H52.92l-0.85-22.15c-0.08-2.16-1.84-3.85-4-3.85H44V56c0-2.21,1.79-4,4-4h24
		c2.21,0,4,1.79,4,4V74z"/>
</g>
</svg>
