<?xml version="1.0" encoding="utf-8"?>
<!-- Generator: Adobe Illustrator 24.0.2, SVG Export Plug-In . SVG Version: 6.00 Build 0)  -->
<svg version="1.1" id="Capa_1" xmlns="http://www.w3.org/2000/svg" xmlns:xlink="http://www.w3.org/1999/xlink" x="0px" y="0px"
	 viewBox="0 0 250 250" style="enable-background:new 0 0 250 250;" xml:space="preserve">
<path d="M224.83,232.5V97.75c0-0.83-0.67-1.5-1.5-1.5s-1.5,0.67-1.5,1.5v15.53h-12.57V97.75c0-0.83-0.67-1.5-1.5-1.5
	s-1.5,0.67-1.5,1.5v15.53h-18.8V97.75c0-0.83-0.67-1.5-1.5-1.5s-1.5,0.67-1.5,1.5v15.53h-12.57V97.75c0-0.83-0.67-1.5-1.5-1.5
	s-1.5,0.67-1.5,1.5v15.53h-18.8V97.75c0-0.83-0.67-1.5-1.5-1.5s-1.5,0.67-1.5,1.5v15.53h-12.57V97.75c0-0.83-0.67-1.5-1.5-1.5
	s-1.5,0.67-1.5,1.5v15.53h-18.8V97.75c0-0.83-0.67-1.5-1.5-1.5s-1.5,0.67-1.5,1.5v15.53H97.15V97.75c0-0.83-0.67-1.5-1.5-1.5
	s-1.5,0.67-1.5,1.5V232.5H78.46V41.34h106v11.08l-36.39,13.27c-0.01,0-0.01,0.01-0.02,0.01c-0.15,0.06-0.28,0.14-0.4,0.23
	c-0.02,0.02-0.04,0.03-0.06,0.05c-0.11,0.1-0.21,0.21-0.28,0.34c-0.01,0.02-0.02,0.04-0.04,0.07c-0.07,0.13-0.13,0.28-0.16,0.43
	c0,0.01,0,0.03,0,0.04c-0.01,0.08-0.02,0.16-0.02,0.24v17.03c0,0.83,0.67,1.5,1.5,1.5h74.74c0.83,0,1.5-0.67,1.5-1.5V67.09
	c0-0.08-0.01-0.16-0.02-0.24c0-0.01,0-0.03,0-0.04c-0.03-0.15-0.09-0.3-0.16-0.43c-0.01-0.02-0.02-0.04-0.04-0.07
	c-0.08-0.13-0.17-0.24-0.28-0.34c-0.02-0.02-0.04-0.03-0.06-0.05c-0.12-0.1-0.25-0.18-0.4-0.23c-0.01,0-0.01-0.01-0.02-0.01
	l-36.39-13.27V41.34h42.1c0.59,0,1.13-0.35,1.37-0.9s0.14-1.18-0.27-1.62l-21.8-23.84c-0.28-0.31-0.69-0.49-1.11-0.49H38.03
	c-0.37,0-0.71,0.14-0.97,0.36c0,0-0.01,0.01-0.01,0.01c-0.07,0.07-0.14,0.14-0.2,0.21c-0.01,0.01-0.02,0.02-0.04,0.04L19.69,38.97
	c0,0,0,0.01-0.01,0.01c-0.07,0.1-0.13,0.21-0.17,0.33c-0.01,0.03-0.02,0.06-0.03,0.08c-0.03,0.09-0.05,0.18-0.06,0.28
	c0,0.04-0.01,0.07-0.01,0.11c0,0.02-0.01,0.05-0.01,0.07v17.03c0,0.83,0.67,1.5,1.5,1.5h24.91c0.83,0,1.5-0.67,1.5-1.5V41.34h6.34
	V232.5H16v3h39.16h21.8H234v-3H224.83z M209.26,116.28h12.57V232.5h-12.57V116.28z M187.46,126.5h18.8v24.25h-18.8V126.5z
	 M206.26,153.75v10.63h-18.8v-10.63H206.26z M187.46,167.38h18.8v24.25h-18.8V167.38z M206.26,194.63v10.63h-18.8v-10.63H206.26z
	 M206.26,116.28v7.22h-18.8v-7.22H206.26z M168.89,116.28v7.22h-18.8v-7.22H168.89z M168.89,191.63h-18.8v-24.25h18.8V191.63z
	 M168.89,194.63v10.63h-18.8v-10.63H168.89z M150.09,164.38v-10.63h18.8v10.63H150.09z M168.89,150.75h-18.8V126.5h18.8V150.75z
	 M131.52,116.28v7.22h-18.8v-7.22H131.52z M131.52,191.63h-18.8v-24.25h18.8V191.63z M131.52,194.63v10.63h-18.8v-10.63H131.52z
	 M112.72,164.38v-10.63h18.8v10.63H112.72z M131.52,150.75h-18.8V126.5h18.8V150.75z M75.46,193.67H57.72l17.74-31.59V193.67z
	 M75.46,150.6l-17.74-31.6h17.74V150.6z M75.46,116.01H57.72l17.74-31.59V116.01z M75.46,72.94L57.72,41.34h17.74V72.94z
	 M74.4,77.17H56.66V45.58L74.4,77.17z M56.66,80.17H74.4l-17.74,31.59V80.17z M74.4,154.84H56.66v-31.6L74.4,154.84z M56.66,157.84
	H74.4l-17.74,31.59V157.84z M75.46,196.67v31.59l-17.74-31.59H75.46z M78.46,19.86l16.9,18.48h-16.9V19.86z M167.56,17.5h36.79
	l-18.4,20.12L167.56,17.5z M182.56,38.34h-36.79l18.4-20.12L182.56,38.34z M142.36,37.62l-18.4-20.12h36.79L142.36,37.62z
	 M138.96,38.34h-36.79l18.4-20.12L138.96,38.34z M98.76,37.62L80.36,17.5h36.79L98.76,37.62z M221.83,82.63h-71.74V68.59h71.74
	V82.63z M157.08,65.59l28.88-10.53l28.88,10.53H157.08z M226.16,38.34h-36.79l18.4-20.12L226.16,38.34z M75.46,38.34h-18.8V17.5
	h18.8V38.34z M44.32,55.38H22.4V41.34h21.91V55.38z M45.82,38.34H23.83l14.2-19.77l14.2,19.77H45.82z M40.96,17.5h12.7v17.68
	L40.96,17.5z M56.66,200.91L74.4,232.5H56.66V200.91z M109.72,232.5H97.15V116.28h12.57V232.5z M112.72,208.25h18.8v24.25h-18.8
	V208.25z M147.09,232.5h-12.57V116.28h12.57V232.5z M150.09,208.25h18.8v24.25h-18.8V208.25z M184.46,232.5h-12.57V116.28h12.57
	V232.5z M187.46,208.25h18.8v24.25h-18.8V208.25z"/>
</svg>
