<?xml version="1.0" encoding="utf-8"?>
<!-- Generator: Adobe Illustrator 24.0.2, SVG Export Plug-In . SVG Version: 6.00 Build 0)  -->
<svg version="1.1" id="Capa_1" xmlns="http://www.w3.org/2000/svg" xmlns:xlink="http://www.w3.org/1999/xlink" x="0px" y="0px"
	 viewBox="0 0 550 300" style="enable-background:new 0 0 550 300;" xml:space="preserve">
<style type="text/css">
	.st0{fill:#FF7800;}
	.st1{fill:#575959;}
	.st2{fill:#FFFFFF;}
	.st3{fill:url(#Trazado_1008_1_);}
	.st4{fill:url(#Trazado_1009_1_);}
	.st5{fill:url(#Trazado_1010_1_);}
	.st6{fill:#E2771C;}
	.st7{fill:#585959;}
</style>
<g>
	<g>
		<g>
			<path d="M28.75,226.36h4.8v11.47l10.1-11.47h5.7l-8.35,9.67l8.92,15.84h-5.55l-6.74-11.93l-4.08,4.62v7.31h-4.8V226.36z"/>
			<path d="M66.95,248.82c0,0.93,0.08,1.62,0.25,2.08c0.17,0.45,0.31,0.78,0.43,0.97H63c-0.14-0.21-0.25-0.48-0.32-0.81
				c-0.07-0.32-0.11-0.6-0.11-0.84c-1.72,1.39-3.69,2.08-5.91,2.08c-0.86,0-1.67-0.13-2.42-0.39c-0.75-0.26-1.4-0.64-1.95-1.13
				c-0.55-0.49-0.99-1.09-1.31-1.79c-0.32-0.7-0.48-1.5-0.48-2.38c0-0.88,0.16-1.65,0.48-2.31c0.32-0.66,0.75-1.21,1.27-1.65
				c0.53-0.44,1.12-0.8,1.77-1.07c0.66-0.27,1.32-0.48,1.99-0.63l1.83-0.36c0.38-0.07,0.79-0.15,1.24-0.23
				c0.44-0.08,0.88-0.17,1.31-0.27c0.43-0.09,0.83-0.19,1.2-0.29c0.37-0.1,0.7-0.19,0.99-0.29v-0.54c0-0.88-0.33-1.49-1-1.81
				c-0.67-0.32-1.48-0.48-2.44-0.48c-1.29,0-2.17,0.2-2.65,0.61c-0.48,0.41-0.72,1.11-0.72,2.11l-4.37-0.18
				c0-1.07,0.21-1.98,0.64-2.72c0.43-0.74,1-1.35,1.72-1.83c0.72-0.48,1.54-0.82,2.47-1.04c0.93-0.21,1.9-0.32,2.9-0.32
				c0.98,0,1.93,0.07,2.87,0.2c0.93,0.13,1.77,0.41,2.51,0.84c0.74,0.43,1.33,1.03,1.77,1.81c0.44,0.78,0.66,1.81,0.66,3.1V248.82z
				 M62.57,242.8c-0.29,0.14-0.6,0.26-0.95,0.36c-0.35,0.1-0.72,0.19-1.13,0.29l-2.4,0.5c-0.41,0.1-0.79,0.2-1.16,0.3
				c-0.37,0.11-0.69,0.25-0.97,0.43c-0.28,0.18-0.49,0.41-0.64,0.7c-0.16,0.29-0.23,0.64-0.23,1.07c0,0.69,0.27,1.24,0.82,1.65
				s1.22,0.61,2.01,0.61c0.5,0,1.03-0.07,1.58-0.2c0.55-0.13,1.05-0.33,1.51-0.59c0.45-0.26,0.83-0.61,1.13-1.04
				c0.3-0.43,0.45-0.93,0.45-1.51V242.8z"/>
			<path d="M71.03,233.74h4.37v1.54h0.07c0.67-0.62,1.43-1.1,2.28-1.45c0.85-0.35,1.81-0.52,2.88-0.52c1.15,0,2.2,0.25,3.15,0.75
				c0.95,0.5,1.78,1.18,2.47,2.04c0.69,0.86,1.23,1.86,1.61,3.01c0.38,1.15,0.57,2.38,0.57,3.69c0,1.31-0.19,2.54-0.57,3.69
				c-0.38,1.15-0.92,2.15-1.61,3.01c-0.69,0.86-1.52,1.54-2.49,2.04c-0.97,0.5-2.04,0.75-3.21,0.75c-1.31,0-2.36-0.2-3.13-0.61
				c-0.78-0.41-1.45-0.93-2.02-1.58v7.56h-4.37V233.74z M79.56,248.28c0.81,0,1.5-0.16,2.06-0.48c0.56-0.32,1-0.75,1.33-1.27
				c0.32-0.53,0.56-1.12,0.7-1.77c0.14-0.66,0.21-1.31,0.21-1.95c0-0.64-0.07-1.3-0.21-1.95c-0.14-0.66-0.38-1.25-0.7-1.77
				c-0.32-0.52-0.76-0.95-1.33-1.27c-0.56-0.32-1.25-0.48-2.06-0.48c-0.84,0-1.53,0.16-2.08,0.48c-0.55,0.32-0.99,0.75-1.31,1.27
				c-0.32,0.53-0.56,1.12-0.7,1.77c-0.14,0.66-0.21,1.31-0.21,1.95c0,0.64,0.07,1.3,0.21,1.95c0.14,0.66,0.38,1.25,0.7,1.77
				c0.32,0.53,0.76,0.95,1.31,1.27C78.03,248.12,78.72,248.28,79.56,248.28z"/>
			<path d="M91.59,226.36h4.37v4.44h-4.37V226.36z M91.59,233.74h4.37v18.13h-4.37V233.74z"/>
			<path d="M100.95,227.32h4.37v6.41h3.91v3.15h-3.91v9.17c0,0.72,0.12,1.27,0.36,1.65c0.24,0.38,0.78,0.57,1.61,0.57
				c0.31,0,0.63-0.02,0.95-0.07c0.32-0.05,0.65-0.1,0.99-0.14v3.58c-0.53,0.12-1.06,0.22-1.61,0.3c-0.55,0.08-1.17,0.13-1.86,0.13
				c-1.79,0-3.04-0.38-3.74-1.15c-0.7-0.76-1.06-1.84-1.06-3.22v-10.82h-2.65v-3.15h2.65V227.32z"/>
			<path d="M126.71,248.82c0,0.93,0.08,1.62,0.25,2.08c0.17,0.45,0.31,0.78,0.43,0.97h-4.62c-0.14-0.21-0.25-0.48-0.32-0.81
				c-0.07-0.32-0.11-0.6-0.11-0.84c-1.72,1.39-3.69,2.08-5.91,2.08c-0.86,0-1.67-0.13-2.42-0.39c-0.75-0.26-1.4-0.64-1.95-1.13
				c-0.55-0.49-0.99-1.09-1.31-1.79c-0.32-0.7-0.48-1.5-0.48-2.38c0-0.88,0.16-1.65,0.48-2.31c0.32-0.66,0.75-1.21,1.27-1.65
				c0.53-0.44,1.12-0.8,1.77-1.07c0.66-0.27,1.32-0.48,1.99-0.63l1.83-0.36c0.38-0.07,0.79-0.15,1.24-0.23
				c0.44-0.08,0.88-0.17,1.31-0.27c0.43-0.09,0.83-0.19,1.2-0.29c0.37-0.1,0.7-0.19,0.99-0.29v-0.54c0-0.88-0.33-1.49-1-1.81
				c-0.67-0.32-1.48-0.48-2.44-0.48c-1.29,0-2.17,0.2-2.65,0.61c-0.48,0.41-0.72,1.11-0.72,2.11l-4.37-0.18
				c0-1.07,0.21-1.98,0.64-2.72c0.43-0.74,1-1.35,1.72-1.83c0.72-0.48,1.54-0.82,2.47-1.04c0.93-0.21,1.9-0.32,2.9-0.32
				c0.98,0,1.93,0.07,2.87,0.2c0.93,0.13,1.77,0.41,2.51,0.84c0.74,0.43,1.33,1.03,1.77,1.81c0.44,0.78,0.66,1.81,0.66,3.1V248.82z
				 M122.34,242.8c-0.29,0.14-0.6,0.26-0.95,0.36c-0.35,0.1-0.72,0.19-1.13,0.29l-2.4,0.5c-0.41,0.1-0.79,0.2-1.16,0.3
				c-0.37,0.11-0.69,0.25-0.97,0.43c-0.28,0.18-0.49,0.41-0.64,0.7c-0.16,0.29-0.23,0.64-0.23,1.07c0,0.69,0.27,1.24,0.82,1.65
				c0.55,0.41,1.22,0.61,2.01,0.61c0.5,0,1.03-0.07,1.58-0.2c0.55-0.13,1.05-0.33,1.51-0.59c0.45-0.26,0.83-0.61,1.13-1.04
				c0.3-0.43,0.45-0.93,0.45-1.51V242.8z"/>
			<path d="M130.79,226.36h4.37v25.51h-4.37V226.36z"/>
		</g>
		<g>
			<g>
				<g>
					<g>
						<path class="st0" d="M141.4,244.2c0.91,1.34,2.02,2.32,3.35,2.94c1.33,0.62,2.78,0.93,4.35,0.93c0.57,0,1.18-0.05,1.83-0.16
							c0.64-0.11,1.23-0.29,1.76-0.54c0.53-0.25,0.96-0.59,1.31-1c0.35-0.42,0.52-0.94,0.52-1.56c0-0.5-0.11-0.92-0.34-1.25
							c-0.23-0.33-0.57-0.63-1.02-0.88c-0.45-0.25-1-0.47-1.65-0.66c-0.64-0.19-1.4-0.38-2.26-0.57l-2.83-0.64
							c-1.03-0.24-2-0.53-2.92-0.86c-0.92-0.33-1.73-0.77-2.44-1.31c-0.71-0.54-1.27-1.21-1.68-2.01c-0.42-0.8-0.63-1.79-0.63-2.96
							c0-1.34,0.29-2.51,0.88-3.51c0.59-1,1.34-1.83,2.28-2.49c0.93-0.66,1.99-1.15,3.17-1.47c1.18-0.32,2.37-0.48,3.57-0.48
							c2.2,0,4.19,0.41,5.97,1.24c1.78,0.82,3.34,2.12,4.68,3.89l-3.98,3.01c-0.62-1.17-1.5-2.08-2.63-2.72
							c-1.13-0.64-2.49-0.97-4.07-0.97c-1.39,0-2.54,0.24-3.46,0.73c-0.92,0.49-1.38,1.19-1.38,2.1c0,0.53,0.14,0.96,0.41,1.31
							c0.27,0.35,0.66,0.64,1.15,0.88c0.49,0.24,1.05,0.44,1.68,0.61c0.63,0.17,1.31,0.32,2.02,0.47l3.12,0.68
							c0.96,0.22,1.87,0.48,2.76,0.81c0.88,0.32,1.67,0.75,2.35,1.29c0.68,0.54,1.23,1.22,1.65,2.04s0.63,1.85,0.63,3.06
							c0,1.55-0.33,2.87-1,3.94c-0.67,1.07-1.54,1.94-2.6,2.6c-1.06,0.66-2.26,1.13-3.6,1.42c-1.34,0.29-2.66,0.43-3.98,0.43
							c-1.05,0-2.1-0.11-3.15-0.34c-1.05-0.23-2.06-0.57-3.03-1.02c-0.97-0.45-1.87-1.01-2.7-1.68c-0.84-0.67-1.55-1.44-2.15-2.33
							L141.4,244.2z"/>
					</g>
				</g>
				<g>
					<g>
						<path class="st0" d="M170.81,233.31c1.46,0,2.76,0.24,3.92,0.72c1.16,0.48,2.13,1.14,2.92,1.99c0.79,0.85,1.39,1.85,1.81,3.01
							c0.42,1.16,0.63,2.42,0.63,3.78c0,1.36-0.21,2.62-0.63,3.78c-0.42,1.16-1.02,2.16-1.81,3.01c-0.79,0.85-1.76,1.51-2.92,1.99
							c-1.16,0.48-2.47,0.72-3.92,0.72c-1.48,0-2.79-0.24-3.94-0.72c-1.15-0.48-2.11-1.14-2.9-1.99c-0.79-0.85-1.39-1.85-1.81-3.01
							c-0.42-1.16-0.63-2.42-0.63-3.78c0-1.36,0.21-2.62,0.63-3.78c0.42-1.16,1.02-2.16,1.81-3.01c0.79-0.85,1.76-1.51,2.9-1.99
							C168.02,233.55,169.33,233.31,170.81,233.31z M170.81,237.32c-0.79,0-1.48,0.16-2.06,0.47c-0.59,0.31-1.07,0.72-1.47,1.22
							c-0.39,0.5-0.69,1.08-0.88,1.74c-0.19,0.66-0.29,1.34-0.29,2.06c0,0.72,0.09,1.4,0.29,2.06c0.19,0.66,0.48,1.24,0.88,1.74
							s0.88,0.91,1.47,1.22c0.58,0.31,1.27,0.47,2.06,0.47c0.79,0,1.47-0.16,2.06-0.47c0.59-0.31,1.07-0.72,1.47-1.22
							s0.69-1.08,0.88-1.74c0.19-0.66,0.29-1.34,0.29-2.06c0-0.72-0.1-1.4-0.29-2.06c-0.19-0.66-0.48-1.24-0.88-1.74
							c-0.39-0.5-0.88-0.91-1.47-1.22C172.29,237.48,171.6,237.32,170.81,237.32z"/>
					</g>
				</g>
				<g>
					<g>
						<path class="st0" d="M183.24,226.36h4.37v25.51h-4.37V226.36z"/>
					</g>
				</g>
				<g>
					<g>
						<path class="st0" d="M208.18,251.87h-4.37v-1.79h-0.07c-0.48,0.62-1.15,1.15-2.02,1.58c-0.87,0.43-1.93,0.64-3.17,0.64
							c-0.76,0-1.54-0.1-2.33-0.29c-0.79-0.19-1.5-0.53-2.13-1.02c-0.63-0.49-1.15-1.16-1.56-2.01c-0.41-0.85-0.61-1.93-0.61-3.24
							v-12h4.37v10.75c0,1.27,0.26,2.18,0.77,2.74c0.51,0.56,1.33,0.84,2.45,0.84c0.81,0,1.5-0.14,2.06-0.41
							c0.56-0.27,1-0.63,1.33-1.06c0.32-0.43,0.55-0.92,0.7-1.47c0.14-0.55,0.21-1.1,0.21-1.65v-9.75h4.37V251.87z"/>
					</g>
				</g>
				<g>
					<g>
						<path class="st0" d="M224.44,240.22c-0.29-0.91-0.78-1.62-1.49-2.13c-0.71-0.51-1.49-0.77-2.35-0.77
							c-0.79,0-1.48,0.16-2.06,0.47c-0.59,0.31-1.07,0.72-1.47,1.22c-0.39,0.5-0.69,1.08-0.88,1.74c-0.19,0.66-0.29,1.34-0.29,2.06
							c0,0.72,0.09,1.4,0.27,2.06c0.18,0.66,0.45,1.24,0.81,1.74c0.36,0.5,0.82,0.91,1.38,1.22c0.56,0.31,1.22,0.47,1.99,0.47
							c0.64,0,1.21-0.11,1.68-0.32c0.48-0.22,0.89-0.49,1.23-0.82c0.35-0.33,0.64-0.71,0.88-1.13c0.24-0.42,0.44-0.83,0.61-1.24
							l3.73,1.97c-0.31,0.67-0.68,1.33-1.11,1.99c-0.43,0.66-0.97,1.25-1.61,1.77c-0.64,0.53-1.42,0.96-2.31,1.29
							c-0.9,0.33-1.95,0.5-3.17,0.5c-1.38,0-2.63-0.24-3.74-0.72c-1.11-0.48-2.05-1.14-2.81-1.99c-0.76-0.85-1.36-1.85-1.77-3.01
							c-0.42-1.16-0.63-2.42-0.63-3.78c0-1.36,0.21-2.62,0.63-3.78c0.42-1.16,1.02-2.16,1.81-3.01c0.79-0.85,1.76-1.51,2.9-1.99
							c1.15-0.48,2.46-0.72,3.94-0.72c1.1,0,2.07,0.14,2.9,0.43c0.84,0.29,1.56,0.66,2.17,1.13c0.61,0.47,1.12,1.02,1.54,1.65
							c0.42,0.63,0.77,1.28,1.06,1.95L224.44,240.22z"/>
					</g>
				</g>
				<g>
					<g>
						<path class="st0" d="M231.07,226.36h4.37v4.44h-4.37V226.36z M231.07,233.74h4.37v18.13h-4.37V233.74z"/>
					</g>
				</g>
				<g>
					<g>
						<path class="st0" d="M247.88,233.31c1.46,0,2.76,0.24,3.92,0.72c1.16,0.48,2.13,1.14,2.92,1.99c0.79,0.85,1.39,1.85,1.81,3.01
							c0.42,1.16,0.63,2.42,0.63,3.78c0,1.36-0.21,2.62-0.63,3.78c-0.42,1.16-1.02,2.16-1.81,3.01c-0.79,0.85-1.76,1.51-2.92,1.99
							c-1.16,0.48-2.47,0.72-3.92,0.72c-1.48,0-2.79-0.24-3.94-0.72c-1.15-0.48-2.11-1.14-2.9-1.99c-0.79-0.85-1.39-1.85-1.81-3.01
							c-0.42-1.16-0.63-2.42-0.63-3.78c0-1.36,0.21-2.62,0.63-3.78c0.42-1.16,1.02-2.16,1.81-3.01c0.79-0.85,1.76-1.51,2.9-1.99
							C245.08,233.55,246.4,233.31,247.88,233.31z M247.88,237.32c-0.79,0-1.48,0.16-2.06,0.47c-0.59,0.31-1.07,0.72-1.47,1.22
							c-0.39,0.5-0.69,1.08-0.88,1.74c-0.19,0.66-0.29,1.34-0.29,2.06c0,0.72,0.1,1.4,0.29,2.06c0.19,0.66,0.48,1.24,0.88,1.74
							c0.39,0.5,0.88,0.91,1.47,1.22c0.59,0.31,1.27,0.47,2.06,0.47c0.79,0,1.47-0.16,2.06-0.47c0.59-0.31,1.07-0.72,1.47-1.22
							c0.39-0.5,0.69-1.08,0.88-1.74c0.19-0.66,0.29-1.34,0.29-2.06c0-0.72-0.1-1.4-0.29-2.06c-0.19-0.66-0.48-1.24-0.88-1.74
							c-0.39-0.5-0.88-0.91-1.47-1.22C249.35,237.48,248.67,237.32,247.88,237.32z"/>
					</g>
				</g>
				<g>
					<g>
						<path class="st0" d="M260.31,233.74h4.37v1.79h0.07c0.65-0.79,1.41-1.36,2.29-1.7c0.88-0.35,1.77-0.52,2.65-0.52
							c2.17,0,3.76,0.53,4.75,1.58c0.99,1.05,1.49,2.58,1.49,4.59v12.4h-4.37V240.8c0-0.41-0.05-0.81-0.16-1.2
							c-0.11-0.39-0.28-0.74-0.5-1.04c-0.23-0.3-0.53-0.54-0.91-0.73c-0.38-0.19-0.86-0.29-1.43-0.29c-0.53,0-1.02,0.09-1.49,0.27
							c-0.47,0.18-0.88,0.47-1.24,0.86s-0.64,0.89-0.84,1.49c-0.2,0.6-0.31,1.31-0.31,2.15v9.57h-4.37V233.74z"/>
					</g>
				</g>
				<g>
					<g>
						<path class="st0" d="M283.67,243.84c0.02,0.67,0.17,1.28,0.43,1.83c0.26,0.55,0.62,1.02,1.06,1.4
							c0.44,0.38,0.94,0.68,1.49,0.9c0.55,0.21,1.12,0.32,1.72,0.32c0.86,0,1.59-0.11,2.2-0.32c0.61-0.22,1.12-0.47,1.54-0.75
							c0.42-0.29,0.74-0.57,0.97-0.86c0.23-0.29,0.4-0.5,0.52-0.64l3.69,2.15c-0.33,0.53-0.76,1.05-1.27,1.58
							c-0.51,0.53-1.13,1-1.84,1.43c-0.72,0.43-1.55,0.78-2.51,1.04c-0.96,0.26-2.05,0.39-3.3,0.39c-1.48,0-2.79-0.24-3.94-0.72
							c-1.15-0.48-2.11-1.14-2.9-1.99c-0.79-0.85-1.39-1.85-1.81-3.01c-0.42-1.16-0.63-2.42-0.63-3.78c0-1.36,0.21-2.62,0.63-3.78
							c0.42-1.16,1.02-2.16,1.81-3.01c0.79-0.85,1.76-1.51,2.9-1.99c1.15-0.48,2.46-0.72,3.94-0.72c1.5,0,2.81,0.24,3.91,0.73
							c1.1,0.49,2.01,1.19,2.72,2.1c0.72,0.91,1.24,2.01,1.58,3.31c0.33,1.3,0.5,2.77,0.5,4.39H283.67z M292.48,240.47
							c0-0.24-0.08-0.56-0.23-0.97c-0.16-0.41-0.4-0.8-0.73-1.18c-0.33-0.38-0.76-0.72-1.27-1c-0.51-0.29-1.14-0.43-1.88-0.43
							c-1.29,0-2.34,0.35-3.14,1.06s-1.32,1.55-1.56,2.53H292.48z"/>
					</g>
				</g>
				<g>
					<g>
						<path class="st0" d="M311.83,239.47c-0.26-0.6-0.76-1.17-1.51-1.72c-0.74-0.55-1.76-0.84-3.05-0.86
							c-1.03,0-1.84,0.16-2.44,0.47c-0.6,0.31-0.9,0.74-0.9,1.29c0,0.53,0.28,0.91,0.84,1.16c0.56,0.25,1.27,0.45,2.11,0.61
							c0.85,0.16,1.77,0.32,2.76,0.48c0.99,0.17,1.91,0.44,2.76,0.81c0.85,0.37,1.55,0.88,2.11,1.54c0.56,0.66,0.84,1.56,0.84,2.71
							c0,1.1-0.23,2.05-0.68,2.85c-0.45,0.8-1.05,1.46-1.79,1.97c-0.74,0.51-1.6,0.9-2.58,1.15c-0.98,0.25-1.98,0.38-3.01,0.38
							c-2.15,0-3.95-0.32-5.39-0.97c-1.45-0.64-2.57-1.42-3.39-2.33l3.3-2.54c0.5,0.74,1.21,1.3,2.11,1.68
							c0.91,0.38,1.95,0.57,3.12,0.57c0.52,0,1-0.07,1.43-0.2c0.43-0.13,0.8-0.3,1.11-0.5c0.31-0.2,0.55-0.43,0.72-0.68
							c0.17-0.25,0.25-0.5,0.25-0.73c0-0.5-0.28-0.88-0.82-1.13c-0.55-0.25-1.24-0.46-2.08-0.63c-0.84-0.17-1.74-0.34-2.7-0.52
							c-0.97-0.18-1.87-0.46-2.7-0.84c-0.84-0.38-1.53-0.91-2.08-1.58c-0.55-0.67-0.82-1.58-0.82-2.72c0-1.03,0.21-1.91,0.63-2.65
							c0.42-0.74,0.99-1.35,1.7-1.83c0.72-0.48,1.56-0.83,2.54-1.06c0.98-0.23,2.03-0.34,3.15-0.34c1.07,0,2.03,0.12,2.87,0.36
							c0.84,0.24,1.56,0.53,2.17,0.88c0.61,0.35,1.12,0.71,1.52,1.09c0.41,0.38,0.72,0.71,0.93,0.97L311.83,239.47z"/>
					</g>
				</g>
			</g>
		</g>
		<g>
			<path d="M318.5,226.36h4.8v25.51h-4.8V226.36z"/>
			<path d="M328.03,233.74h4.37v1.79h0.07c0.65-0.79,1.41-1.36,2.29-1.7c0.88-0.35,1.77-0.52,2.65-0.52c2.17,0,3.76,0.53,4.75,1.58
				c0.99,1.05,1.49,2.58,1.49,4.59v12.4h-4.37V240.8c0-0.41-0.05-0.81-0.16-1.2c-0.11-0.39-0.28-0.74-0.5-1.04
				c-0.23-0.3-0.53-0.54-0.91-0.73c-0.38-0.19-0.86-0.29-1.43-0.29c-0.53,0-1.02,0.09-1.49,0.27c-0.47,0.18-0.88,0.47-1.24,0.86
				s-0.64,0.89-0.84,1.49c-0.2,0.6-0.31,1.31-0.31,2.15v9.57h-4.37V233.74z"/>
			<path d="M347.95,233.74h4.37v1.79c0.67-0.69,1.42-1.24,2.24-1.63c0.82-0.39,1.82-0.59,2.99-0.59c0.53,0,1.06,0.05,1.61,0.14
				c0.55,0.1,1.06,0.25,1.54,0.47c0.48,0.22,0.91,0.5,1.29,0.84c0.38,0.35,0.68,0.77,0.9,1.27c0.67-0.88,1.46-1.56,2.38-2.02
				c0.92-0.47,1.99-0.7,3.21-0.7c1.98,0,3.53,0.48,4.66,1.43c1.12,0.96,1.68,2.41,1.68,4.37v12.76h-4.37v-11
				c0-1.05-0.24-1.9-0.72-2.56c-0.48-0.66-1.23-0.99-2.26-0.99c-0.62,0-1.17,0.14-1.65,0.41c-0.48,0.28-0.88,0.64-1.22,1.11
				c-0.34,0.47-0.59,1-0.77,1.59c-0.18,0.6-0.27,1.22-0.27,1.86v9.57h-4.37v-11c0-1.05-0.24-1.9-0.72-2.56
				c-0.48-0.66-1.25-0.99-2.33-0.99c-0.6,0-1.13,0.14-1.59,0.41c-0.47,0.28-0.87,0.64-1.2,1.11c-0.33,0.47-0.59,1-0.77,1.59
				c-0.18,0.6-0.27,1.22-0.27,1.86v9.57h-4.37V233.74z"/>
			<path d="M387.25,233.31c1.46,0,2.76,0.24,3.92,0.72c1.16,0.48,2.13,1.14,2.92,1.99c0.79,0.85,1.39,1.85,1.81,3.01
				c0.42,1.16,0.63,2.42,0.63,3.78c0,1.36-0.21,2.62-0.63,3.78c-0.42,1.16-1.02,2.16-1.81,3.01c-0.79,0.85-1.76,1.51-2.92,1.99
				c-1.16,0.48-2.47,0.72-3.92,0.72c-1.48,0-2.79-0.24-3.94-0.72c-1.15-0.48-2.11-1.14-2.9-1.99c-0.79-0.85-1.39-1.85-1.81-3.01
				c-0.42-1.16-0.63-2.42-0.63-3.78c0-1.36,0.21-2.62,0.63-3.78c0.42-1.16,1.02-2.16,1.81-3.01c0.79-0.85,1.76-1.51,2.9-1.99
				C384.46,233.55,385.77,233.31,387.25,233.31z M387.25,237.32c-0.79,0-1.48,0.16-2.06,0.47c-0.59,0.31-1.07,0.72-1.47,1.22
				c-0.39,0.5-0.69,1.08-0.88,1.74c-0.19,0.66-0.29,1.34-0.29,2.06c0,0.72,0.1,1.4,0.29,2.06c0.19,0.66,0.48,1.24,0.88,1.74
				c0.39,0.5,0.88,0.91,1.47,1.22c0.59,0.31,1.27,0.47,2.06,0.47s1.47-0.16,2.06-0.47c0.59-0.31,1.07-0.72,1.47-1.22
				c0.39-0.5,0.69-1.08,0.88-1.74c0.19-0.66,0.29-1.34,0.29-2.06c0-0.72-0.1-1.4-0.29-2.06c-0.19-0.66-0.48-1.24-0.88-1.74
				c-0.39-0.5-0.88-0.91-1.47-1.22C388.73,237.48,388.04,237.32,387.25,237.32z"/>
			<path d="M399.68,226.36h4.37v8.92c0.67-0.62,1.43-1.1,2.28-1.45c0.85-0.35,1.81-0.52,2.88-0.52c1.17,0,2.24,0.25,3.21,0.75
				s1.8,1.18,2.49,2.04c0.69,0.86,1.23,1.86,1.61,3.01c0.38,1.15,0.57,2.38,0.57,3.69c0,1.31-0.19,2.54-0.57,3.69
				c-0.38,1.15-0.92,2.15-1.61,3.01c-0.69,0.86-1.52,1.54-2.49,2.04c-0.97,0.5-2.04,0.75-3.21,0.75c-1.31,0-2.35-0.2-3.12-0.61
				c-0.76-0.41-1.42-0.93-1.97-1.58h-0.07v1.76h-4.37V226.36z M408.21,237.32c-0.84,0-1.53,0.16-2.08,0.48
				c-0.55,0.32-0.98,0.75-1.31,1.27c-0.32,0.53-0.56,1.12-0.7,1.77c-0.14,0.66-0.21,1.31-0.21,1.95c0,0.64,0.07,1.3,0.21,1.95
				c0.14,0.66,0.38,1.25,0.7,1.77c0.32,0.53,0.76,0.95,1.31,1.27c0.55,0.32,1.24,0.48,2.08,0.48c0.81,0,1.5-0.16,2.06-0.48
				c0.56-0.32,1-0.75,1.33-1.27c0.32-0.53,0.56-1.12,0.7-1.77c0.14-0.66,0.21-1.31,0.21-1.95c0-0.64-0.07-1.3-0.21-1.95
				c-0.14-0.66-0.38-1.25-0.7-1.77c-0.32-0.52-0.76-0.95-1.33-1.27C409.71,237.48,409.02,237.32,408.21,237.32z"/>
			<path d="M420.25,226.36h4.37v4.44h-4.37V226.36z M420.25,233.74h4.37v18.13h-4.37V233.74z"/>
			<path d="M428.92,226.36h4.37v25.51h-4.37V226.36z"/>
			<path d="M437.59,226.36h4.37v4.44h-4.37V226.36z M437.59,233.74h4.37v18.13h-4.37V233.74z"/>
			<path d="M461.42,248.82c0,0.93,0.08,1.62,0.25,2.08c0.17,0.45,0.31,0.78,0.43,0.97h-4.62c-0.14-0.21-0.25-0.48-0.32-0.81
				c-0.07-0.32-0.11-0.6-0.11-0.84c-1.72,1.39-3.69,2.08-5.91,2.08c-0.86,0-1.67-0.13-2.42-0.39c-0.75-0.26-1.4-0.64-1.95-1.13
				c-0.55-0.49-0.99-1.09-1.31-1.79c-0.32-0.7-0.48-1.5-0.48-2.38c0-0.88,0.16-1.65,0.48-2.31c0.32-0.66,0.75-1.21,1.27-1.65
				c0.52-0.44,1.12-0.8,1.77-1.07c0.66-0.27,1.32-0.48,1.99-0.63l1.83-0.36c0.38-0.07,0.79-0.15,1.24-0.23
				c0.44-0.08,0.88-0.17,1.31-0.27c0.43-0.09,0.83-0.19,1.2-0.29c0.37-0.1,0.7-0.19,0.99-0.29v-0.54c0-0.88-0.34-1.49-1-1.81
				c-0.67-0.32-1.48-0.48-2.44-0.48c-1.29,0-2.17,0.2-2.65,0.61c-0.48,0.41-0.72,1.11-0.72,2.11l-4.37-0.18
				c0-1.07,0.22-1.98,0.65-2.72c0.43-0.74,1-1.35,1.72-1.83c0.72-0.48,1.54-0.82,2.47-1.04c0.93-0.21,1.9-0.32,2.9-0.32
				c0.98,0,1.94,0.07,2.87,0.2c0.93,0.13,1.77,0.41,2.51,0.84c0.74,0.43,1.33,1.03,1.77,1.81c0.44,0.78,0.66,1.81,0.66,3.1V248.82z
				 M457.04,242.8c-0.29,0.14-0.6,0.26-0.95,0.36c-0.35,0.1-0.72,0.19-1.13,0.29l-2.4,0.5c-0.41,0.1-0.79,0.2-1.16,0.3
				c-0.37,0.11-0.69,0.25-0.97,0.43c-0.27,0.18-0.49,0.41-0.64,0.7c-0.16,0.29-0.23,0.64-0.23,1.07c0,0.69,0.28,1.24,0.82,1.65
				c0.55,0.41,1.22,0.61,2.01,0.61c0.5,0,1.03-0.07,1.58-0.2c0.55-0.13,1.05-0.33,1.5-0.59c0.45-0.26,0.83-0.61,1.13-1.04
				c0.3-0.43,0.45-0.93,0.45-1.51V242.8z"/>
			<path d="M465.5,233.74h4.37v2.51h0.07c0.52-1.05,1.27-1.8,2.22-2.26c0.95-0.45,2.08-0.68,3.37-0.68v4.44
				c-0.74,0-1.45,0.1-2.13,0.29c-0.68,0.19-1.28,0.5-1.81,0.91c-0.53,0.42-0.94,0.97-1.25,1.65c-0.31,0.68-0.47,1.51-0.47,2.49v8.78
				h-4.37V233.74z"/>
			<path d="M478.11,226.36h4.37v4.44h-4.37V226.36z M478.11,233.74h4.37v18.13h-4.37V233.74z"/>
			<path d="M501.94,248.82c0,0.93,0.08,1.62,0.25,2.08c0.17,0.45,0.31,0.78,0.43,0.97H498c-0.14-0.21-0.25-0.48-0.32-0.81
				c-0.07-0.32-0.11-0.6-0.11-0.84c-1.72,1.39-3.69,2.08-5.91,2.08c-0.86,0-1.67-0.13-2.42-0.39c-0.75-0.26-1.4-0.64-1.95-1.13
				c-0.55-0.49-0.99-1.09-1.31-1.79c-0.32-0.7-0.48-1.5-0.48-2.38c0-0.88,0.16-1.65,0.48-2.31c0.32-0.66,0.75-1.21,1.27-1.65
				c0.52-0.44,1.12-0.8,1.77-1.07c0.66-0.27,1.32-0.48,1.99-0.63l1.83-0.36c0.38-0.07,0.79-0.15,1.24-0.23
				c0.44-0.08,0.88-0.17,1.31-0.27c0.43-0.09,0.83-0.19,1.2-0.29c0.37-0.1,0.7-0.19,0.99-0.29v-0.54c0-0.88-0.34-1.49-1-1.81
				c-0.67-0.32-1.48-0.48-2.44-0.48c-1.29,0-2.17,0.2-2.65,0.61c-0.48,0.41-0.72,1.11-0.72,2.11l-4.37-0.18
				c0-1.07,0.22-1.98,0.65-2.72c0.43-0.74,1-1.35,1.72-1.83c0.72-0.48,1.54-0.82,2.47-1.04c0.93-0.21,1.9-0.32,2.9-0.32
				c0.98,0,1.94,0.07,2.87,0.2c0.93,0.13,1.77,0.41,2.51,0.84c0.74,0.43,1.33,1.03,1.77,1.81c0.44,0.78,0.66,1.81,0.66,3.1V248.82z
				 M497.57,242.8c-0.29,0.14-0.6,0.26-0.95,0.36c-0.35,0.1-0.72,0.19-1.13,0.29l-2.4,0.5c-0.41,0.1-0.79,0.2-1.16,0.3
				c-0.37,0.11-0.69,0.25-0.97,0.43c-0.27,0.18-0.49,0.41-0.64,0.7c-0.16,0.29-0.23,0.64-0.23,1.07c0,0.69,0.28,1.24,0.82,1.65
				s1.22,0.61,2.01,0.61c0.5,0,1.03-0.07,1.58-0.2c0.55-0.13,1.05-0.33,1.5-0.59c0.45-0.26,0.83-0.61,1.13-1.04
				c0.3-0.43,0.45-0.93,0.45-1.51V242.8z"/>
			<path d="M517.7,239.47c-0.26-0.6-0.76-1.17-1.51-1.72c-0.74-0.55-1.76-0.84-3.05-0.86c-1.03,0-1.84,0.16-2.44,0.47
				c-0.6,0.31-0.9,0.74-0.9,1.29c0,0.53,0.28,0.91,0.84,1.16c0.56,0.25,1.27,0.45,2.11,0.61c0.85,0.16,1.77,0.32,2.76,0.48
				c0.99,0.17,1.91,0.44,2.76,0.81c0.85,0.37,1.55,0.88,2.11,1.54c0.56,0.66,0.84,1.56,0.84,2.71c0,1.1-0.23,2.05-0.68,2.85
				c-0.45,0.8-1.05,1.46-1.79,1.97c-0.74,0.51-1.6,0.9-2.58,1.15c-0.98,0.25-1.98,0.38-3.01,0.38c-2.15,0-3.95-0.32-5.39-0.97
				c-1.45-0.64-2.57-1.42-3.39-2.33l3.3-2.54c0.5,0.74,1.21,1.3,2.11,1.68c0.91,0.38,1.95,0.57,3.12,0.57c0.52,0,1-0.07,1.43-0.2
				c0.43-0.13,0.8-0.3,1.11-0.5c0.31-0.2,0.55-0.43,0.72-0.68c0.17-0.25,0.25-0.5,0.25-0.73c0-0.5-0.28-0.88-0.82-1.13
				c-0.55-0.25-1.24-0.46-2.08-0.63c-0.84-0.17-1.74-0.34-2.7-0.52c-0.97-0.18-1.87-0.46-2.7-0.84c-0.84-0.38-1.53-0.91-2.08-1.58
				c-0.55-0.67-0.82-1.58-0.82-2.72c0-1.03,0.21-1.91,0.63-2.65c0.42-0.74,0.99-1.35,1.7-1.83c0.72-0.48,1.56-0.83,2.54-1.06
				c0.98-0.23,2.03-0.34,3.15-0.34c1.07,0,2.03,0.12,2.87,0.36c0.84,0.24,1.56,0.53,2.17,0.88c0.61,0.35,1.12,0.71,1.52,1.09
				c0.41,0.38,0.72,0.71,0.93,0.97L517.7,239.47z"/>
		</g>
		<g>
			<path class="st1" d="M177.43,260.03c0.79-0.17,2.05-0.29,3.32-0.29c1.82,0,2.99,0.31,3.87,1.02c0.73,0.54,1.17,1.38,1.17,2.49
				c0,1.36-0.9,2.55-2.38,3.09v0.04c1.34,0.33,2.9,1.44,2.9,3.53c0,1.21-0.48,2.13-1.19,2.82c-0.98,0.9-2.57,1.32-4.87,1.32
				c-1.25,0-2.22-0.08-2.82-0.17V260.03z M179.25,265.79h1.65c1.92,0,3.05-1,3.05-2.36c0-1.65-1.25-2.3-3.09-2.3
				c-0.84,0-1.32,0.06-1.61,0.13V265.79z M179.25,272.54c0.36,0.06,0.88,0.08,1.53,0.08c1.88,0,3.62-0.69,3.62-2.74
				c0-1.92-1.65-2.72-3.64-2.72h-1.5V272.54z"/>
			<path class="st1" d="M197.16,271.16c0,1.04,0.02,1.96,0.08,2.76h-1.63l-0.1-1.65h-0.04c-0.48,0.81-1.55,1.88-3.34,1.88
				c-1.59,0-3.49-0.88-3.49-4.43v-5.91h1.84v5.6c0,1.92,0.59,3.22,2.26,3.22c1.23,0,2.09-0.86,2.42-1.67
				c0.1-0.27,0.17-0.61,0.17-0.94v-6.21h1.84V271.16z"/>
			<path class="st1" d="M202.26,260.97c0.02,0.63-0.44,1.13-1.17,1.13c-0.65,0-1.11-0.5-1.11-1.13c0-0.65,0.48-1.15,1.15-1.15
				C201.82,259.82,202.26,260.32,202.26,260.97z M200.21,273.92v-10.11h1.84v10.11H200.21z"/>
			<path class="st1" d="M205.1,259.09h1.84v14.84h-1.84V259.09z"/>
			<path class="st1" d="M218.77,259.09v12.22c0,0.9,0.02,1.92,0.08,2.61h-1.65l-0.08-1.76h-0.04c-0.56,1.13-1.8,1.99-3.45,1.99
				c-2.44,0-4.33-2.07-4.33-5.14c-0.02-3.36,2.07-5.43,4.53-5.43c1.55,0,2.59,0.73,3.05,1.55h0.04v-6.04H218.77z M216.93,267.93
				c0-0.23-0.02-0.54-0.08-0.77c-0.27-1.17-1.27-2.13-2.65-2.13c-1.9,0-3.03,1.67-3.03,3.91c0,2.05,1,3.74,2.99,3.74
				c1.23,0,2.36-0.81,2.7-2.19c0.06-0.25,0.08-0.5,0.08-0.79V267.93z"/>
			<path class="st1" d="M223.87,260.97c0.02,0.63-0.44,1.13-1.17,1.13c-0.65,0-1.11-0.5-1.11-1.13c0-0.65,0.48-1.15,1.15-1.15
				C223.43,259.82,223.87,260.32,223.87,260.97z M221.82,273.92v-10.11h1.84v10.11H221.82z"/>
			<path class="st1" d="M226.71,266.55c0-1.04-0.02-1.9-0.08-2.74h1.63l0.1,1.67h0.04c0.5-0.96,1.67-1.9,3.34-1.9
				c1.4,0,3.57,0.84,3.57,4.3v6.04h-1.84v-5.83c0-1.63-0.61-2.99-2.34-2.99c-1.21,0-2.15,0.86-2.47,1.88
				c-0.08,0.23-0.13,0.54-0.13,0.86v6.08h-1.84V266.55z"/>
			<path class="st1" d="M247.02,263.81c-0.04,0.73-0.08,1.55-0.08,2.78v5.87c0,2.32-0.46,3.74-1.44,4.62
				c-0.98,0.92-2.4,1.21-3.68,1.21c-1.21,0-2.55-0.29-3.36-0.84l0.46-1.4c0.67,0.42,1.71,0.79,2.97,0.79c1.88,0,3.26-0.98,3.26-3.53
				v-1.13h-0.04c-0.56,0.94-1.65,1.69-3.22,1.69c-2.51,0-4.3-2.13-4.3-4.93c0-3.43,2.24-5.37,4.56-5.37c1.76,0,2.72,0.92,3.16,1.76
				h0.04l0.08-1.53H247.02z M245.12,267.8c0-0.31-0.02-0.59-0.1-0.84c-0.33-1.07-1.23-1.94-2.57-1.94c-1.76,0-3.01,1.48-3.01,3.82
				c0,1.99,1,3.64,2.99,3.64c1.13,0,2.15-0.71,2.55-1.88c0.1-0.31,0.15-0.67,0.15-0.98V267.8z"/>
			<path class="st1" d="M261.63,273.55c-0.48,0.25-1.55,0.59-2.9,0.59c-3.05,0-5.04-2.07-5.04-5.16c0-3.11,2.13-5.37,5.43-5.37
				c1.09,0,2.05,0.27,2.55,0.52l-0.42,1.42c-0.44-0.25-1.13-0.48-2.13-0.48c-2.32,0-3.57,1.71-3.57,3.82c0,2.34,1.5,3.78,3.51,3.78
				c1.04,0,1.73-0.27,2.26-0.5L261.63,273.55z"/>
			<path class="st1" d="M263.79,259.09h1.84v14.84h-1.84V259.09z"/>
			<path class="st1" d="M270.77,260.97c0.02,0.63-0.44,1.13-1.17,1.13c-0.65,0-1.11-0.5-1.11-1.13c0-0.65,0.48-1.15,1.15-1.15
				C270.33,259.82,270.77,260.32,270.77,260.97z M268.72,273.92v-10.11h1.84v10.11H268.72z"/>
			<path class="st1" d="M274.63,269.2c0.04,2.49,1.63,3.51,3.47,3.51c1.32,0,2.11-0.23,2.8-0.52l0.31,1.32
				c-0.65,0.29-1.76,0.63-3.36,0.63c-3.11,0-4.97-2.05-4.97-5.1s1.8-5.45,4.74-5.45c3.3,0,4.18,2.9,4.18,4.76
				c0,0.38-0.04,0.67-0.06,0.86H274.63z M280.03,267.88c0.02-1.17-0.48-2.99-2.55-2.99c-1.86,0-2.67,1.71-2.82,2.99H280.03z"/>
			<path class="st1" d="M284.08,266.55c0-1.04-0.02-1.9-0.08-2.74h1.63l0.1,1.67h0.04c0.5-0.96,1.67-1.9,3.34-1.9
				c1.4,0,3.57,0.84,3.57,4.3v6.04h-1.84v-5.83c0-1.63-0.61-2.99-2.34-2.99c-1.21,0-2.15,0.86-2.47,1.88
				c-0.08,0.23-0.13,0.54-0.13,0.86v6.08h-1.84V266.55z"/>
			<path class="st1" d="M297.81,260.9v2.9h2.63v1.4h-2.63v5.45c0,1.25,0.36,1.96,1.38,1.96c0.48,0,0.84-0.06,1.07-0.13l0.08,1.38
				c-0.36,0.15-0.92,0.25-1.63,0.25c-0.86,0-1.55-0.27-1.99-0.77c-0.52-0.54-0.71-1.44-0.71-2.63v-5.52h-1.57v-1.4h1.57v-2.42
				L297.81,260.9z"/>
			<path class="st1" d="M302.26,272.04c0.54,0.36,1.5,0.73,2.42,0.73c1.34,0,1.96-0.67,1.96-1.5c0-0.88-0.52-1.36-1.88-1.86
				c-1.82-0.65-2.67-1.65-2.67-2.86c0-1.63,1.32-2.97,3.49-2.97c1.02,0,1.92,0.29,2.49,0.63l-0.46,1.34
				c-0.4-0.25-1.13-0.59-2.07-0.59c-1.09,0-1.69,0.63-1.69,1.38c0,0.84,0.61,1.21,1.92,1.71c1.76,0.67,2.65,1.55,2.65,3.05
				c0,1.78-1.38,3.03-3.78,3.03c-1.11,0-2.13-0.27-2.84-0.69L302.26,272.04z"/>
			<path class="st1" d="M315.41,273.92v-8.71h-1.42v-1.4h1.42v-0.48c0-1.42,0.31-2.72,1.17-3.53c0.69-0.67,1.61-0.94,2.47-0.94
				c0.65,0,1.21,0.15,1.57,0.29l-0.25,1.42c-0.27-0.13-0.65-0.23-1.17-0.23c-1.57,0-1.96,1.38-1.96,2.93v0.54h2.44v1.4h-2.44v8.71
				H315.41z"/>
			<path class="st1" d="M330.21,268.78c0,3.74-2.59,5.37-5.04,5.37c-2.74,0-4.85-2.01-4.85-5.2c0-3.39,2.22-5.37,5.02-5.37
				C328.24,263.58,330.21,265.69,330.21,268.78z M322.18,268.89c0,2.22,1.27,3.89,3.07,3.89c1.76,0,3.07-1.65,3.07-3.93
				c0-1.71-0.86-3.89-3.03-3.89S322.18,266.96,322.18,268.89z"/>
			<path class="st1" d="M332.53,266.96c0-1.19-0.02-2.22-0.08-3.16h1.61l0.06,1.99h0.08c0.46-1.36,1.57-2.22,2.8-2.22
				c0.21,0,0.36,0.02,0.52,0.06v1.73c-0.19-0.04-0.38-0.06-0.63-0.06c-1.3,0-2.21,0.98-2.47,2.36c-0.04,0.25-0.08,0.54-0.08,0.86
				v5.39h-1.82V266.96z"/>
			<path class="st1" d="M343.86,259.84h1.82v12.56h6.02v1.53h-7.84V259.84z"/>
			<path class="st1" d="M355.7,260.97c0.02,0.63-0.44,1.13-1.17,1.13c-0.65,0-1.11-0.5-1.11-1.13c0-0.65,0.48-1.15,1.15-1.15
				C355.27,259.82,355.7,260.32,355.7,260.97z M353.66,273.92v-10.11h1.84v10.11H353.66z"/>
			<path class="st1" d="M358.74,273.92v-8.71h-1.42v-1.4h1.42v-0.48c0-1.42,0.31-2.72,1.17-3.53c0.69-0.67,1.61-0.94,2.47-0.94
				c0.65,0,1.21,0.15,1.57,0.29l-0.25,1.42c-0.27-0.13-0.65-0.23-1.17-0.23c-1.57,0-1.96,1.38-1.96,2.93v0.54H363v1.4h-2.44v8.71
				H358.74z"/>
			<path class="st1" d="M365.4,269.2c0.04,2.49,1.63,3.51,3.47,3.51c1.32,0,2.11-0.23,2.8-0.52l0.31,1.32
				c-0.65,0.29-1.76,0.63-3.36,0.63c-3.11,0-4.97-2.05-4.97-5.1s1.8-5.45,4.74-5.45c3.3,0,4.18,2.9,4.18,4.76
				c0,0.38-0.04,0.67-0.06,0.86H365.4z M370.79,267.88c0.02-1.17-0.48-2.99-2.55-2.99c-1.86,0-2.67,1.71-2.82,2.99H370.79z"/>
		</g>
	</g>
	<g id="Grupo_4521" transform="translate(-50.484 -105.942)">
		<path id="Trazado_1007" class="st2" d="M285.31,196.88l40.13-23.26l40.05,23.12l0.08,46.39l-40.05,23.12l-40.21-23.12
			L285.31,196.88z"/>
		<g id="Grupo_4522" transform="translate(204.484 105.942)">
			
				<linearGradient id="Trazado_1008_1_" gradientUnits="userSpaceOnUse" x1="-559.157" y1="430.4901" x2="-559.602" y2="431.4281" gradientTransform="matrix(134.765 0 0 -110.7722 75483.1719 47888.3711)">
				<stop  offset="0" style="stop-color:#73AE76"/>
				<stop  offset="0.2" style="stop-color:#73AE76"/>
				<stop  offset="0.504" style="stop-color:#4D8548"/>
				<stop  offset="0.804" style="stop-color:#3E6E37"/>
				<stop  offset="1" style="stop-color:#2E5128"/>
			</linearGradient>
			<path id="Trazado_1008" class="st3" d="M145.92,174.68l-65.1-37.49V90.94l-24.88,14.37c-9.24,5.33-14.93,15.19-14.93,25.86v29.01
				l65.02,37.53c9.24,5.33,20.62,5.33,29.86,0l39.89-23.03C166.54,180.01,155.16,180.01,145.92,174.68z"/>
			
				<linearGradient id="Trazado_1009_1_" gradientUnits="userSpaceOnUse" x1="-558.0768" y1="431.8588" x2="-558.8278" y2="431.1288" gradientTransform="matrix(79.861 0 0 -142.4652 44762.0547 61588.3984)">
				<stop  offset="0" style="stop-color:#EBAB68"/>
				<stop  offset="0.2" style="stop-color:#E79542"/>
				<stop  offset="0.5" style="stop-color:#E2771C"/>
				<stop  offset="0.8" style="stop-color:#894A11"/>
				<stop  offset="1" style="stop-color:#894A11"/>
			</linearGradient>
			<path id="Trazado_1009" class="st4" d="M185.97,59.24l-39.89-23.03c9.24,5.33,14.93,15.19,14.93,25.86l0.08,75.12l-40.05,23.12
				l24.88,14.36c9.24,5.33,20.62,5.33,29.86,0l25.12-14.5V85.1C200.9,74.43,195.21,64.58,185.97,59.24z"/>
			
				<linearGradient id="Trazado_1010_1_" gradientUnits="userSpaceOnUse" x1="-559.6581" y1="430.9629" x2="-558.6581" y2="430.9629" gradientTransform="matrix(119.995 0 0 -109.457 67197.1953 47248.3359)">
				<stop  offset="0" style="stop-color:#6173BD"/>
				<stop  offset="0.2" style="stop-color:#4459AD"/>
				<stop  offset="0.5" style="stop-color:#293EA8"/>
				<stop  offset="0.8" style="stop-color:#1A2767"/>
				<stop  offset="1" style="stop-color:#1A2767"/>
			</linearGradient>
			<path id="Trazado_1010" class="st5" d="M120.96,67.68l40.05,23.12V62.07c0-10.67-5.69-20.52-14.93-25.86l-25.12-14.5L55.95,59.24
				c-9.24,5.33-14.93,15.19-14.93,25.86v46.06c0-10.67,5.69-20.52,14.93-25.86L120.96,67.68z"/>
			<g id="Grupo_4521-2" transform="translate(46.333 72.505)">
				<path id="Trazado_1011" d="M41.02,22.55h6.27v14.97l13.19-14.97h7.44l-10.9,12.63l11.65,20.68h-7.25l-8.79-15.58l-5.33,6.03
					v9.54h-6.27L41.02,22.55z"/>
				<path id="Trazado_1012" class="st6" d="M73.62,45.85c1.08,1.65,2.59,2.98,4.37,3.84c1.78,0.82,3.72,1.24,5.68,1.22
					c0.8,0,1.6-0.07,2.39-0.21c0.79-0.12,1.56-0.36,2.29-0.7c0.66-0.31,1.24-0.75,1.71-1.31c0.46-0.58,0.7-1.3,0.68-2.04
					c0.02-0.58-0.13-1.15-0.45-1.64c-0.35-0.48-0.81-0.87-1.33-1.15c-0.68-0.36-1.41-0.65-2.15-0.87c-0.84-0.25-1.82-0.5-2.95-0.75
					l-3.7-0.84c-1.29-0.3-2.57-0.67-3.81-1.12c-1.14-0.4-2.21-0.98-3.18-1.71c-0.92-0.7-1.67-1.59-2.2-2.62
					c-0.58-1.2-0.86-2.53-0.82-3.86c-0.04-1.6,0.36-3.19,1.15-4.58c0.74-1.29,1.76-2.4,2.97-3.25c1.26-0.88,2.66-1.53,4.14-1.92
					c1.52-0.42,3.08-0.63,4.65-0.63c2.68-0.04,5.34,0.51,7.79,1.61c2.42,1.16,4.52,2.9,6.1,5.07l-5.19,3.93
					c-0.78-1.49-1.97-2.73-3.44-3.55c-1.63-0.88-3.46-1.31-5.31-1.26c-1.56-0.05-3.11,0.27-4.51,0.96c-1.09,0.47-1.8,1.55-1.8,2.74
					c-0.02,0.62,0.17,1.22,0.55,1.71c0.41,0.49,0.92,0.88,1.5,1.15c0.71,0.34,1.44,0.61,2.2,0.8c0.83,0.22,1.71,0.42,2.64,0.61
					l4.07,0.89c1.22,0.27,2.42,0.63,3.6,1.05c1.1,0.39,2.14,0.96,3.06,1.68c0.9,0.72,1.64,1.63,2.15,2.67
					c0.58,1.25,0.86,2.62,0.82,4c0.06,1.8-0.4,3.59-1.31,5.15c-0.85,1.38-2.01,2.54-3.39,3.39c-1.45,0.88-3.04,1.51-4.7,1.85
					c-1.71,0.37-3.45,0.56-5.19,0.56c-1.38,0-2.76-0.15-4.12-0.44c-1.37-0.3-2.7-0.75-3.96-1.35c-1.26-0.59-2.45-1.33-3.53-2.2
					c-1.09-0.86-2.03-1.89-2.81-3.04L73.62,45.85z"/>
				<path id="Trazado_1013" d="M101.97,22.55h6.27v33.3h-6.27V22.55z"/>
			</g>
		</g>
		<g id="Grupo_4524" transform="translate(354.113 253.66)">
			<g id="Grupo_4523" transform="translate(3.019 2.729)">
				<path id="Trazado_1014" class="st7" d="M41.02,26.58v-4.88h2.16c0.34-0.01,0.67,0.03,0.99,0.13c0.23,0.09,0.42,0.25,0.54,0.46
					c0.13,0.22,0.2,0.48,0.2,0.73c0.01,0.32-0.11,0.64-0.34,0.88c-0.28,0.26-0.65,0.42-1.04,0.45c0.14,0.06,0.27,0.14,0.39,0.24
					c0.21,0.19,0.38,0.41,0.54,0.65l0.85,1.33H44.5l-0.64-1.01c-0.19-0.29-0.34-0.52-0.47-0.67c-0.09-0.13-0.2-0.23-0.33-0.33
					c-0.09-0.06-0.19-0.1-0.3-0.13c-0.12-0.02-0.24-0.03-0.36-0.02h-0.75v2.17L41.02,26.58z M41.66,23.86h1.39
					c0.23,0.01,0.47-0.02,0.69-0.09c0.16-0.05,0.29-0.16,0.38-0.29c0.09-0.13,0.13-0.28,0.13-0.44c0.01-0.22-0.09-0.43-0.25-0.57
					c-0.23-0.17-0.51-0.25-0.79-0.22h-1.55L41.66,23.86z"/>
			</g>
			<path id="Trazado_1015" class="st7" d="M46.19,32.04c-2.85,0-5.17-2.31-5.17-5.17c0-2.85,2.31-5.17,5.17-5.17
				c2.85,0,5.17,2.31,5.17,5.17c0,0,0,0,0,0C51.35,29.73,49.04,32.04,46.19,32.04z M46.19,22.71c-2.3,0-4.17,1.87-4.17,4.17
				c0,2.3,1.87,4.17,4.17,4.17c2.3,0,4.17-1.87,4.17-4.17C50.36,24.57,48.49,22.71,46.19,22.71L46.19,22.71z"/>
		</g>
	</g>
</g>
</svg>
