<?xml version="1.0" encoding="utf-8"?>
<!-- Generator: Adobe Illustrator 24.0.2, SVG Export Plug-In . SVG Version: 6.00 Build 0)  -->
<svg version="1.1" id="Capa_1" xmlns="http://www.w3.org/2000/svg" xmlns:xlink="http://www.w3.org/1999/xlink" x="0px" y="0px"
	 viewBox="0 0 200 200" style="enable-background:new 0 0 200 200;" xml:space="preserve">
<style type="text/css">
	.st0{fill:#FFFFFF;}
	.st1{fill:url(#SVGID_1_);}
	.st2{fill:url(#SVGID_2_);}
	.st3{fill:url(#SVGID_3_);}
	.st4{fill:#FF5C24;}
</style>
<g>
	<polygon class="st0" points="100.06,65.75 131.21,83.74 131.28,119.82 100.13,137.8 68.85,119.82 68.85,83.85 	"/>
	<linearGradient id="SVGID_1_" gradientUnits="userSpaceOnUse" x1="105.7743" y1="170.2587" x2="59.1099" y2="89.4337">
		<stop  offset="5.327789e-07" style="stop-color:#4BAF73"/>
		<stop  offset="0.2" style="stop-color:#4BAF73"/>
		<stop  offset="0.5045" style="stop-color:#108542"/>
		<stop  offset="0.8045" style="stop-color:#006E30"/>
		<stop  offset="1" style="stop-color:#015020"/>
	</linearGradient>
	<path class="st1" d="M119.41,148.98l-50.63-29.16V83.85L49.43,95.02c-7.19,4.15-11.61,11.81-11.61,20.11v22.56l50.57,29.19
		c7.19,4.15,16.04,4.15,23.22,0l31.03-17.91C135.45,153.12,126.6,153.12,119.41,148.98z"/>
	<linearGradient id="SVGID_2_" gradientUnits="userSpaceOnUse" x1="96.3032" y1="134.0435" x2="161.4191" y2="68.9276">
		<stop  offset="9.536743e-07" style="stop-color:#000000"/>
		<stop  offset="1" style="stop-color:#969696"/>
	</linearGradient>
	<path class="st2" d="M150.57,59.19l-31.03-17.91c7.19,4.15,11.61,11.81,11.61,20.11l0.06,58.42l-31.15,17.99l19.35,11.17
		c7.19,4.15,16.04,4.15,23.22,0l19.54-11.28l0-58.39C162.18,71.01,157.75,63.34,150.57,59.19z"/>
	<linearGradient id="SVGID_3_" gradientUnits="userSpaceOnUse" x1="131.1514" y1="72.5657" x2="37.8226" y2="72.5657">
		<stop  offset="9.536743e-07" style="stop-color:#000000"/>
		<stop  offset="1" style="stop-color:#969696"/>
	</linearGradient>
	<path class="st3" d="M100,65.75l31.15,17.99V61.39c0-8.3-4.43-15.96-11.61-20.11L100,30L49.43,59.19
		c-7.19,4.15-11.61,11.81-11.61,20.11v35.83c0-8.3,4.43-15.96,11.61-20.11L100,65.75z"/>
	<g>
		<path d="M73.86,87.05h4.88v11.64l10.26-11.64h5.78l-8.48,9.82l9.06,16.08h-5.64l-6.84-12.12l-4.15,4.69v7.42h-4.88V87.05z"/>
		<path class="st4" d="M99.22,105.17c0.92,1.36,2.06,2.35,3.4,2.98c1.35,0.63,2.82,0.95,4.42,0.95c0.58,0,1.2-0.05,1.86-0.16
			c0.66-0.11,1.25-0.29,1.78-0.55c0.53-0.25,0.98-0.59,1.33-1.02c0.35-0.42,0.53-0.95,0.53-1.58c0-0.51-0.12-0.93-0.35-1.27
			c-0.23-0.34-0.58-0.64-1.04-0.89c-0.46-0.25-1.02-0.48-1.67-0.67c-0.65-0.19-1.42-0.39-2.29-0.58l-2.87-0.66
			c-1.04-0.24-2.03-0.53-2.97-0.87c-0.93-0.34-1.76-0.78-2.47-1.33c-0.72-0.55-1.29-1.22-1.71-2.04c-0.42-0.81-0.64-1.81-0.64-3
			c0-1.36,0.3-2.55,0.89-3.57c0.59-1.02,1.36-1.86,2.31-2.53c0.95-0.67,2.02-1.16,3.22-1.49c1.2-0.33,2.41-0.49,3.62-0.49
			c2.23,0,4.25,0.42,6.06,1.26c1.81,0.84,3.39,2.15,4.75,3.95l-4.04,3.06c-0.63-1.19-1.52-2.11-2.67-2.76
			c-1.15-0.66-2.53-0.98-4.13-0.98c-1.41,0-2.58,0.25-3.51,0.75c-0.93,0.5-1.4,1.21-1.4,2.13c0,0.53,0.14,0.98,0.42,1.33
			c0.28,0.35,0.67,0.65,1.16,0.89c0.5,0.24,1.07,0.45,1.71,0.62c0.64,0.17,1.33,0.33,2.06,0.47l3.17,0.69
			c0.97,0.22,1.9,0.49,2.8,0.82c0.9,0.33,1.69,0.76,2.38,1.31c0.69,0.55,1.25,1.24,1.67,2.07c0.42,0.84,0.64,1.87,0.64,3.11
			c0,1.58-0.34,2.91-1.02,4c-0.68,1.09-1.56,1.97-2.64,2.64c-1.08,0.67-2.3,1.15-3.66,1.44c-1.36,0.29-2.7,0.44-4.04,0.44
			c-1.07,0-2.13-0.12-3.2-0.35c-1.07-0.23-2.09-0.58-3.07-1.04c-0.98-0.46-1.9-1.03-2.75-1.71c-0.85-0.68-1.58-1.47-2.18-2.36
			L99.22,105.17z"/>
		<path d="M121.26,87.05h4.88v25.9h-4.88V87.05z"/>
	</g>
</g>
</svg>
