<?xml version="1.0" encoding="utf-8"?>
<!-- Generator: Adobe Illustrator 24.0.2, SVG Export Plug-In . SVG Version: 6.00 Build 0)  -->
<svg version="1.1" id="Capa_1" xmlns="http://www.w3.org/2000/svg" xmlns:xlink="http://www.w3.org/1999/xlink" x="0px" y="0px"
	 viewBox="0 0 162 182" style="enable-background:new 0 0 162 182;" xml:space="preserve">
<style type="text/css">
	.st0{fill:#FFFFFF;}
	.st1{fill:url(#Trazado_1008_1_);}
	.st2{fill:url(#Trazado_1009_1_);}
	.st3{fill:url(#Trazado_1010_1_);}
	.st4{fill:#E2771C;}
	.st5{fill:#585959;}
</style>
<g id="Grupo_4521" transform="translate(-50.484 -105.942)">
	<path id="Trazado_1007" class="st0" d="M91.31,176.17l40.13-23.26l40.05,23.12l0.08,46.39l-40.05,23.12l-40.21-23.12L91.31,176.17z
		"/>
	<g id="Grupo_4522" transform="translate(204.484 105.942)">
		
			<linearGradient id="Trazado_1008_1_" gradientUnits="userSpaceOnUse" x1="-753.157" y1="371.1444" x2="-753.602" y2="372.0824" gradientTransform="matrix(134.765 0 0 -110.7722 101433.5859 41293.8086)">
			<stop  offset="0" style="stop-color:#73AE76"/>
			<stop  offset="0.2" style="stop-color:#73AE76"/>
			<stop  offset="0.504" style="stop-color:#4D8548"/>
			<stop  offset="0.804" style="stop-color:#3E6E37"/>
			<stop  offset="1" style="stop-color:#2E5128"/>
		</linearGradient>
		<path id="Trazado_1008" class="st1" d="M-48.08,153.97l-65.1-37.49V70.23l-24.88,14.37c-9.24,5.33-14.93,15.19-14.93,25.86v29.01
			L-87.97,177c9.24,5.33,20.62,5.33,29.86,0l39.89-23.03C-27.46,159.3-38.84,159.3-48.08,153.97z"/>
		
			<linearGradient id="Trazado_1009_1_" gradientUnits="userSpaceOnUse" x1="-752.0768" y1="372.59" x2="-752.8278" y2="371.86" gradientTransform="matrix(79.861 0 0 -142.4652 60061.0938 53123.9531)">
			<stop  offset="0" style="stop-color:#EBAB68"/>
			<stop  offset="0.2" style="stop-color:#E79542"/>
			<stop  offset="0.5" style="stop-color:#E2771C"/>
			<stop  offset="0.8" style="stop-color:#894A11"/>
			<stop  offset="1" style="stop-color:#894A11"/>
		</linearGradient>
		<path id="Trazado_1009" class="st2" d="M-8.03,38.53L-47.92,15.5c9.24,5.33,14.93,15.19,14.93,25.86l0.08,75.12l-40.05,23.12
			l24.88,14.36c9.24,5.33,20.62,5.33,29.86,0l25.12-14.5V64.39C6.9,53.72,1.21,43.87-8.03,38.53z"/>
		
			<linearGradient id="Trazado_1010_1_" gradientUnits="userSpaceOnUse" x1="-753.6581" y1="371.613" x2="-752.6581" y2="371.613" gradientTransform="matrix(119.995 0 0 -109.457 90282.2188 40731.375)">
			<stop  offset="0" style="stop-color:#6173BD"/>
			<stop  offset="0.2" style="stop-color:#4459AD"/>
			<stop  offset="0.5" style="stop-color:#293EA8"/>
			<stop  offset="0.8" style="stop-color:#1A2767"/>
			<stop  offset="1" style="stop-color:#1A2767"/>
		</linearGradient>
		<path id="Trazado_1010" class="st3" d="M-73.04,46.97l40.05,23.12V41.36c0-10.67-5.69-20.52-14.93-25.86L-73.04,1l-65.01,37.53
			c-9.24,5.33-14.93,15.19-14.93,25.86v46.06c0-10.67,5.69-20.52,14.93-25.86L-73.04,46.97z"/>
		<g id="Grupo_4521-2" transform="translate(46.333 72.505)">
			<path id="Trazado_1011" d="M-152.98,1.84h6.27v14.97l13.19-14.97h7.44l-10.9,12.63l11.65,20.68h-7.25l-8.79-15.58l-5.33,6.03
				v9.54h-6.27L-152.98,1.84z"/>
			<path id="Trazado_1012" class="st4" d="M-120.38,25.14c1.08,1.65,2.59,2.98,4.37,3.84c1.78,0.82,3.72,1.24,5.68,1.22
				c0.8,0,1.6-0.07,2.39-0.21c0.79-0.12,1.56-0.36,2.29-0.7c0.66-0.31,1.24-0.75,1.71-1.31c0.46-0.58,0.7-1.3,0.68-2.04
				c0.02-0.58-0.13-1.15-0.45-1.64c-0.35-0.48-0.81-0.87-1.33-1.15c-0.68-0.36-1.41-0.65-2.15-0.87c-0.84-0.25-1.82-0.5-2.95-0.75
				l-3.7-0.84c-1.29-0.3-2.57-0.67-3.81-1.12c-1.14-0.4-2.21-0.98-3.18-1.71c-0.92-0.7-1.67-1.59-2.2-2.62
				c-0.58-1.2-0.86-2.53-0.82-3.86c-0.04-1.6,0.36-3.19,1.15-4.58c0.74-1.29,1.76-2.4,2.97-3.25c1.26-0.88,2.66-1.53,4.14-1.92
				c1.52-0.42,3.08-0.63,4.65-0.63c2.68-0.04,5.34,0.51,7.79,1.61c2.42,1.16,4.52,2.9,6.1,5.07l-5.19,3.93
				c-0.78-1.49-1.97-2.73-3.44-3.55c-1.63-0.88-3.46-1.31-5.31-1.26c-1.56-0.05-3.11,0.27-4.51,0.96c-1.09,0.47-1.8,1.55-1.8,2.74
				c-0.02,0.62,0.17,1.22,0.55,1.71c0.41,0.49,0.92,0.88,1.5,1.15c0.71,0.34,1.44,0.61,2.2,0.8c0.83,0.22,1.71,0.42,2.64,0.61
				l4.07,0.89c1.22,0.27,2.42,0.63,3.6,1.05c1.1,0.39,2.14,0.96,3.06,1.68c0.9,0.72,1.64,1.63,2.15,2.67c0.58,1.25,0.86,2.62,0.82,4
				c0.06,1.8-0.4,3.59-1.31,5.15c-0.85,1.38-2.01,2.54-3.39,3.39c-1.45,0.88-3.04,1.51-4.7,1.85c-1.71,0.37-3.45,0.56-5.19,0.56
				c-1.38,0-2.76-0.15-4.12-0.44c-1.37-0.3-2.7-0.75-3.96-1.35c-1.26-0.59-2.45-1.33-3.53-2.2c-1.09-0.86-2.03-1.89-2.81-3.04
				L-120.38,25.14z"/>
			<path id="Trazado_1013" d="M-92.03,1.84h6.27v33.3h-6.27V1.84z"/>
		</g>
	</g>
	<g id="Grupo_4524" transform="translate(354.113 253.66)">
		<g id="Grupo_4523" transform="translate(3.019 2.729)">
			<path id="Trazado_1014" class="st5" d="M-152.98,5.88V1h2.16c0.34-0.01,0.67,0.03,0.99,0.13c0.23,0.09,0.42,0.25,0.54,0.46
				c0.13,0.22,0.2,0.48,0.2,0.73c0.01,0.32-0.11,0.64-0.34,0.88c-0.28,0.26-0.65,0.42-1.04,0.45c0.14,0.06,0.27,0.14,0.39,0.24
				c0.21,0.19,0.38,0.41,0.54,0.65l0.85,1.33h-0.81l-0.64-1.01c-0.19-0.29-0.34-0.52-0.47-0.67c-0.09-0.13-0.2-0.23-0.33-0.33
				c-0.09-0.06-0.19-0.1-0.3-0.13c-0.12-0.02-0.24-0.03-0.36-0.02h-0.75v2.17L-152.98,5.88z M-152.34,3.15h1.39
				c0.23,0.01,0.47-0.02,0.69-0.09c0.16-0.05,0.29-0.16,0.38-0.29c0.09-0.13,0.13-0.28,0.13-0.44c0.01-0.22-0.09-0.43-0.25-0.57
				c-0.23-0.17-0.51-0.25-0.79-0.22h-1.55L-152.34,3.15z"/>
		</g>
		<path id="Trazado_1015" class="st5" d="M-147.81,11.34c-2.85,0-5.17-2.31-5.17-5.17c0-2.85,2.31-5.17,5.17-5.17
			c2.85,0,5.17,2.31,5.17,5.17c0,0,0,0,0,0C-142.65,9.02-144.96,11.33-147.81,11.34z M-147.81,2c-2.3,0-4.17,1.87-4.17,4.17
			c0,2.3,1.87,4.17,4.17,4.17c2.3,0,4.17-1.87,4.17-4.17C-143.64,3.86-145.51,2-147.81,2L-147.81,2z"/>
	</g>
</g>
</svg>
